<svg width="130" height="75" viewBox="0 0 130 75" fill="none" xmlns="http://www.w3.org/2000/svg">
<path d="M116.005 18.1852L124.352 25.75H7.25V10.25H124.352L116.005 17.8148L115.801 18L116.005 18.1852Z" stroke="#021620" stroke-width="0.5"/>
<path d="M116.005 38.1852L124.352 45.75H7.25V30.25H124.352L116.005 37.8148L115.801 38L116.005 38.1852Z" stroke="#021620" stroke-width="0.5"/>
<path d="M116.005 58.1852L124.352 65.75H7.25V50.25H124.352L116.005 57.8148L115.801 58L116.005 58.1852Z" stroke="#021620" stroke-width="0.5"/>
<rect x="0.25" y="0.25" width="129.5" height="74.5" rx="9.75" stroke="#021620" stroke-width="0.5"/>
<circle cx="106" cy="38" r="3.85" stroke="#021620" stroke-width="0.3"/>
<circle cx="95" cy="38" r="3.85" stroke="#021620" stroke-width="0.3"/>
<circle cx="106" cy="38" r="3.85" stroke="#021620" stroke-width="0.3"/>
<circle cx="95" cy="38" r="3.85" stroke="#021620" stroke-width="0.3"/>
<circle cx="84" cy="38" r="3.85" stroke="#021620" stroke-width="0.3"/>
<circle cx="73" cy="38" r="3.85" stroke="#021620" stroke-width="0.3"/>
<circle cx="62" cy="38" r="3.85" stroke="#021620" stroke-width="0.3"/>
<circle cx="84" cy="38" r="3.85" stroke="#021620" stroke-width="0.3"/>
<circle cx="73" cy="38" r="3.85" stroke="#021620" stroke-width="0.3"/>
<circle cx="62" cy="38" r="3.85" stroke="#021620" stroke-width="0.3"/>
<circle cx="51" cy="38" r="3.85" stroke="#021620" stroke-width="0.3"/>
<circle cx="40" cy="38" r="3.85" stroke="#021620" stroke-width="0.3"/>
<circle cx="29" cy="38" r="3.85" stroke="#021620" stroke-width="0.3"/>
<circle cx="51" cy="38" r="3.85" stroke="#021620" stroke-width="0.3"/>
<circle cx="40" cy="38" r="3.85" stroke="#021620" stroke-width="0.3"/>
<circle cx="29" cy="38" r="3.85" stroke="#021620" stroke-width="0.3"/>
<circle cx="106" cy="18" r="3.85" stroke="#021620" stroke-width="0.3"/>
<circle cx="95" cy="18" r="3.85" stroke="#021620" stroke-width="0.3"/>
<circle cx="106" cy="18" r="3.85" stroke="#021620" stroke-width="0.3"/>
<circle cx="95" cy="18" r="3.85" stroke="#021620" stroke-width="0.3"/>
<circle cx="84" cy="18" r="3.85" stroke="#021620" stroke-width="0.3"/>
<circle cx="73" cy="18" r="3.85" stroke="#021620" stroke-width="0.3"/>
<circle cx="62" cy="18" r="3.85" stroke="#021620" stroke-width="0.3"/>
<circle cx="84" cy="18" r="3.85" stroke="#021620" stroke-width="0.3"/>
<circle cx="73" cy="18" r="3.85" stroke="#021620" stroke-width="0.3"/>
<circle cx="62" cy="18" r="3.85" stroke="#021620" stroke-width="0.3"/>
<circle cx="51" cy="18" r="3.85" stroke="#021620" stroke-width="0.3"/>
<circle cx="40" cy="18" r="3.85" stroke="#021620" stroke-width="0.3"/>
<circle cx="29" cy="18" r="3.85" stroke="#021620" stroke-width="0.3"/>
<circle cx="51" cy="18" r="3.85" stroke="#021620" stroke-width="0.3"/>
<circle cx="40" cy="18" r="3.85" stroke="#021620" stroke-width="0.3"/>
<circle cx="29" cy="18" r="3.85" stroke="#021620" stroke-width="0.3"/>
<circle cx="106" cy="58" r="3.85" stroke="#021620" stroke-width="0.3"/>
<circle cx="95" cy="58" r="3.85" stroke="#021620" stroke-width="0.3"/>
<circle cx="106" cy="58" r="3.85" stroke="#021620" stroke-width="0.3"/>
<circle cx="95" cy="58" r="3.85" stroke="#021620" stroke-width="0.3"/>
<circle cx="84" cy="58" r="3.85" stroke="#021620" stroke-width="0.3"/>
<circle cx="73" cy="58" r="3.85" stroke="#021620" stroke-width="0.3"/>
<circle cx="62" cy="58" r="3.85" stroke="#021620" stroke-width="0.3"/>
<circle cx="84" cy="58" r="3.85" stroke="#021620" stroke-width="0.3"/>
<circle cx="73" cy="58" r="3.85" stroke="#021620" stroke-width="0.3"/>
<circle cx="62" cy="58" r="3.85" stroke="#021620" stroke-width="0.3"/>
<circle cx="51" cy="58" r="3.85" stroke="#021620" stroke-width="0.3"/>
<circle cx="40" cy="58" r="3.85" stroke="#021620" stroke-width="0.3"/>
<circle cx="29" cy="58" r="3.85" stroke="#021620" stroke-width="0.3"/>
<circle cx="51" cy="58" r="3.85" stroke="#021620" stroke-width="0.3"/>
<circle cx="40" cy="58" r="3.85" stroke="#021620" stroke-width="0.3"/>
<circle cx="29" cy="58" r="3.85" stroke="#021620" stroke-width="0.3"/>
<path d="M19.8143 14.1134L18.3727 22.8501H13.6273L12.1857 14.1134C12.2025 14.1175 12.2202 14.1217 12.2388 14.1262C12.4217 14.1695 12.6907 14.227 13.038 14.2844C13.7327 14.3993 14.7409 14.5137 16 14.5137C17.2591 14.5137 18.2673 14.3993 18.962 14.2844C19.3093 14.227 19.5783 14.1695 19.7612 14.1262C19.7798 14.1217 19.7975 14.1175 19.8143 14.1134Z" stroke="#021620" stroke-width="0.3" stroke-linejoin="round"/>
<path d="M13 18.6638C15 16.1819 17.5 19.3637 19 18.6638" stroke="#021620" stroke-width="0.3"/>
<path d="M19.7365 14.0835C19.8009 13.9569 19.9845 13.7586 19.8167 13.637C19.6488 13.5154 19.3703 13.4032 18.9993 13.3076C18.6283 13.212 18.1729 13.1353 17.6629 13.0823C17.1529 13.0293 16.5995 13.0013 16.0387 13C15.478 12.9988 14.9223 13.0244 14.4079 13.0751C13.8934 13.1258 13.4317 13.2006 13.0525 13.2945C12.6734 13.3884 12.3854 13.4994 12.2073 13.6203C12.0291 13.7411 12.1536 13.9566 12.2072 14.0835" stroke="#021620" stroke-width="0.3"/>
<circle cx="14.5" cy="19.5" r="0.45" stroke="#021620" stroke-width="0.1"/>
<circle cx="15.15" cy="20.15" r="0.125" stroke="#021620" stroke-width="0.05"/>
<rect x="19.847" y="35.1499" width="6.53329" height="1.39676" rx="0.698378" transform="rotate(89.7525 19.847 35.1499)" stroke="#021620" stroke-width="0.3"/>
<rect x="14.1929" y="35.1506" width="6.53329" height="1.46375" rx="0.731874" transform="rotate(89.7525 14.1929 35.1506)" stroke="#021620" stroke-width="0.3"/>
<mask id="path-60-inside-1_158_2224" fill="white">
<path d="M12.5493 35.7637C12.6794 35.7632 12.7854 35.8682 12.7859 35.9983L12.8071 40.8961C12.8076 41.0262 12.7026 41.1321 12.5725 41.1327C11.8766 41.1357 11.31 40.574 11.307 39.8781L11.2947 37.0292C11.2917 36.3333 11.8534 35.7667 12.5493 35.7637Z"/>
</mask>
<path d="M12.7849 35.7627L12.8081 41.1317L12.7849 35.7627ZM12.3505 41.4336C11.6122 41.4368 11.0112 40.8409 11.008 40.1027L10.9937 36.8072C10.9906 36.0689 11.5864 35.4679 12.3247 35.4647L12.5506 36.0637C12.0204 36.066 11.5924 36.4977 11.5947 37.0279L11.607 39.8768C11.6093 40.407 12.041 40.835 12.5712 40.8327L12.3505 41.4336ZM10.9937 36.8072C10.9906 36.0689 11.5864 35.4679 12.3247 35.4647L12.3247 35.4647C12.5782 35.4636 12.7845 35.6682 12.7856 35.9216L12.7862 36.0627C12.7862 36.0627 12.6807 36.0631 12.5506 36.0637C12.0204 36.066 11.5924 36.4977 11.5947 37.0279L10.9937 36.8072ZM12.8074 40.9728C12.8085 41.2262 12.6039 41.4325 12.3505 41.4336L12.3505 41.4336C11.6122 41.4368 11.0112 40.8409 11.008 40.1027L11.607 39.8768C11.6093 40.407 12.041 40.835 12.5712 40.8327C12.7013 40.8321 12.8068 40.8317 12.8068 40.8317L12.8074 40.9728Z" fill="#021620" mask="url(#path-60-inside-1_158_2224)"/>
<mask id="path-62-inside-2_158_2224" fill="white">
<path d="M19.9625 35.6098C20.698 35.6066 21.2969 36.2003 21.3001 36.9358L21.3123 39.7632C21.3155 40.4987 20.7218 41.0976 19.9862 41.1007C19.8516 41.1013 19.742 40.9927 19.7414 40.858L19.7198 35.8546C19.7192 35.7199 19.8279 35.6103 19.9625 35.6098Z"/>
</mask>
<path d="M20.1862 35.3088C20.9632 35.3054 21.5957 35.9325 21.5991 36.7095L21.6132 39.9869C21.6166 40.7639 20.9895 41.3964 20.2125 41.3998L19.9849 40.8007C20.5548 40.7983 21.0147 40.3343 21.0123 39.7645L21.0001 36.9371C20.9976 36.3672 20.5337 35.9073 19.9638 35.9098L20.1862 35.3088ZM19.7425 41.1018L19.7188 35.6108L19.7425 41.1018ZM19.7195 35.7796C19.7184 35.5207 19.9273 35.3099 20.1862 35.3088L20.1862 35.3088C20.9632 35.3054 21.5957 35.9325 21.5991 36.7095L21.0001 36.9371C20.9976 36.3672 20.5337 35.9073 19.9638 35.9098L19.9638 35.9098C19.8292 35.9103 19.72 35.9108 19.72 35.9108L19.7195 35.7796ZM21.6132 39.9869C21.6166 40.7639 20.9895 41.3964 20.2125 41.3998L20.2125 41.3998C19.9536 41.4009 19.7429 41.1919 19.7417 40.933L19.7412 40.8018C19.7412 40.8018 19.8503 40.8013 19.9849 40.8007L19.9849 40.8007C20.5548 40.7983 21.0147 40.3343 21.0123 39.7645L21.6132 39.9869Z" fill="#021620" mask="url(#path-62-inside-2_158_2224)"/>
<rect x="22.3743" y="37.8235" width="1.16428" height="0.996816" rx="0.498408" transform="rotate(89.7525 22.3743 37.8235)" stroke="#021620" stroke-width="0.3"/>
<rect x="11.1929" y="37.8831" width="1.16428" height="1.04225" rx="0.521127" transform="rotate(89.7525 11.1929 37.8831)" stroke="#021620" stroke-width="0.3"/>
<rect x="18.4282" y="37.8838" width="1.16428" height="4.20437" transform="rotate(89.7525 18.4282 37.8838)" stroke="#021620" stroke-width="0.3"/>
<mask id="path-67-inside-3_158_2224" fill="white">
<path d="M11 62C11 61.4477 11.4477 61 12 61H20C20.5523 61 21 61.4477 21 62C21 62.5523 20.5523 63 20 63H12C11.4477 63 11 62.5523 11 62Z"/>
</mask>
<path d="M11 61H21H11ZM21.3 62.15C21.3 62.7851 20.7851 63.3 20.15 63.3H11.85C11.2149 63.3 10.7 62.7851 10.7 62.15L11.3 62C11.3 62.3866 11.6134 62.7 12 62.7H20C20.3866 62.7 20.7 62.3866 20.7 62L21.3 62.15ZM11.85 63.3C11.2149 63.3 10.7 62.7851 10.7 62.15V62.15C10.7 61.5149 11.2149 61 11.85 61H12C11.6134 61 11.3 61.4477 11.3 62C11.3 62.3866 11.6134 62.7 12 62.7L11.85 63.3ZM20.15 61C20.7851 61 21.3 61.5149 21.3 62.15V62.15C21.3 62.7851 20.7851 63.3 20.15 63.3L20 62.7C20.3866 62.7 20.7 62.3866 20.7 62C20.7 61.4477 20.3866 61 20 61H20.15Z" fill="#021620" mask="url(#path-67-inside-3_158_2224)"/>
<rect x="10.15" y="60.15" width="11.7" height="0.7" rx="0.35" stroke="#021620" stroke-width="0.3"/>
<rect x="11.15" y="59.15" width="2.7" height="0.7" rx="0.35" stroke="#021620" stroke-width="0.3"/>
<line x1="12.3" y1="58" x2="12.3" y2="59" stroke="#021620" stroke-width="0.6"/>
<line x1="12.5888" y1="56.9757" x2="13.7273" y2="53.8991" stroke="#021620" stroke-width="0.6"/>
<mask id="path-73-inside-4_158_2224" fill="white">
<path d="M15.0459 53.6661C14.8142 53.4499 14.5235 53.316 14.2376 53.2938C13.9518 53.2717 13.6942 53.3631 13.5216 53.548C13.349 53.733 13.2755 53.9962 13.3173 54.2798C13.3591 54.5635 13.5127 54.8443 13.7444 55.0606L14.3951 54.3634L15.0459 53.6661Z"/>
</mask>
<path d="M15.0459 53.6661C14.8142 53.4499 14.5235 53.316 14.2376 53.2938C13.9518 53.2717 13.6942 53.3631 13.5216 53.548C13.349 53.733 13.2755 53.9962 13.3173 54.2798C13.3591 54.5635 13.5127 54.8443 13.7444 55.0606L14.3951 54.3634L15.0459 53.6661Z" stroke="#021620" stroke-width="8" mask="url(#path-73-inside-4_158_2224)"/>
<mask id="path-74-outside-5_158_2224" maskUnits="userSpaceOnUse" x="11" y="56" width="2" height="3" fill="black">
<rect fill="white" x="11" y="56" width="2" height="3"/>
<path d="M12.6836 57.0349C12.6181 57.0091 12.5478 56.9973 12.4774 57.0005C12.407 57.0037 12.338 57.0217 12.2751 57.0534C12.2121 57.0852 12.1566 57.1298 12.1121 57.1845C12.0676 57.2392 12.0352 57.3026 12.017 57.3707C11.9988 57.4388 11.9952 57.5099 12.0064 57.5795C12.0176 57.6491 12.0434 57.7155 12.0821 57.7744C12.1207 57.8334 12.1714 57.8834 12.2308 57.9214C12.2902 57.9593 12.357 57.9843 12.4267 57.9946L12.5 57.5L12.6836 57.0349Z"/>
</mask>
<path d="M12.6836 57.0349C12.6181 57.0091 12.5478 56.9973 12.4774 57.0005C12.407 57.0037 12.338 57.0217 12.2751 57.0534C12.2121 57.0852 12.1566 57.1298 12.1121 57.1845C12.0676 57.2392 12.0352 57.3026 12.017 57.3707C11.9988 57.4388 11.9952 57.5099 12.0064 57.5795C12.0176 57.6491 12.0434 57.7155 12.0821 57.7744C12.1207 57.8334 12.1714 57.8834 12.2308 57.9214C12.2902 57.9593 12.357 57.9843 12.4267 57.9946L12.5 57.5L12.6836 57.0349Z" stroke="#021620" stroke-width="0.4" mask="url(#path-74-outside-5_158_2224)"/>
<circle cx="14.5001" cy="54.5001" r="0.55" transform="rotate(-136.292 14.5001 54.5001)" stroke="#021620" stroke-width="0.1"/>
<path d="M20.957 59.9499H18.05V59.367C18.0679 59.3613 18.0924 59.3536 18.1229 59.3444C18.1916 59.3234 18.2905 59.2944 18.4106 59.2621C18.6509 59.1975 18.9754 59.1201 19.3133 59.0685C19.6519 59.0169 20.0008 58.9917 20.2911 59.0298C20.5832 59.068 20.8022 59.1683 20.9021 59.3542C20.9609 59.4639 20.9749 59.6202 20.972 59.7554C20.9707 59.8219 20.9653 59.8811 20.9603 59.9237C20.9592 59.9334 20.958 59.9421 20.957 59.9499Z" stroke="#021620" stroke-width="0.1"/>
<path d="M15.043 59.9499H17.95V59.367C17.9321 59.3613 17.9076 59.3536 17.8771 59.3443C17.8084 59.3234 17.7095 59.2943 17.5894 59.2621C17.3491 59.1975 17.0246 59.1201 16.6867 59.0685C16.3481 59.0169 15.9992 58.9917 15.7089 59.0297C15.4168 59.068 15.1978 59.1683 15.0979 59.3542C15.0391 59.4639 15.0251 59.6201 15.028 59.7554C15.0293 59.8219 15.0347 59.8811 15.0397 59.9237C15.0408 59.9333 15.042 59.9421 15.043 59.9499Z" stroke="#021620" stroke-width="0.1"/>
<path d="M16.1577 56.9418L15.9695 56.995C15.9576 56.9637 15.9402 56.9332 15.9171 56.9036C15.8946 56.8734 15.8638 56.8485 15.8248 56.829C15.7857 56.8095 15.7357 56.7997 15.6747 56.7997C15.5913 56.7997 15.5217 56.819 15.4661 56.8574C15.411 56.8953 15.3835 56.9435 15.3835 57.0021C15.3835 57.0542 15.4025 57.0953 15.4403 57.1255C15.4782 57.1557 15.5374 57.1809 15.6179 57.201L15.8203 57.2507C15.9422 57.2803 16.0331 57.3256 16.0929 57.3865C16.1526 57.4469 16.1825 57.5247 16.1825 57.62C16.1825 57.6982 16.16 57.768 16.1151 57.8295C16.0707 57.8911 16.0085 57.9396 15.9286 57.9751C15.8487 58.0107 15.7558 58.0284 15.6499 58.0284C15.5108 58.0284 15.3957 57.9982 15.3045 57.9379C15.2134 57.8775 15.1557 57.7893 15.1314 57.6733L15.3303 57.6236C15.3492 57.697 15.385 57.752 15.4377 57.7887C15.4909 57.8254 15.5605 57.8438 15.6463 57.8438C15.744 57.8438 15.8215 57.823 15.8789 57.7816C15.9369 57.7396 15.9659 57.6893 15.9659 57.6307C15.9659 57.5833 15.9493 57.5437 15.9162 57.5117C15.883 57.4792 15.8321 57.4549 15.7635 57.4389L15.5362 57.3857C15.4113 57.3561 15.3196 57.3102 15.261 57.248C15.203 57.1853 15.174 57.1069 15.174 57.0128C15.174 56.9358 15.1956 56.8678 15.2388 56.8086C15.2826 56.7494 15.3421 56.7029 15.4173 56.6692C15.493 56.6355 15.5788 56.6186 15.6747 56.6186C15.8097 56.6186 15.9156 56.6482 15.9925 56.7074C16.0701 56.7666 16.1251 56.8447 16.1577 56.9418ZM17.091 56.6364V56.8139H16.3843V56.6364H17.091ZM16.5902 56.3097H16.7998V57.6094C16.7998 57.6686 16.8083 57.7129 16.8255 57.7425C16.8433 57.7715 16.8658 57.7911 16.893 57.8011C16.9208 57.8106 16.9501 57.8153 16.9809 57.8153C17.004 57.8153 17.0229 57.8142 17.0377 57.8118C17.0525 57.8088 17.0643 57.8065 17.0732 57.8047L17.1158 57.9929C17.1016 57.9982 17.0818 58.0036 17.0563 58.0089C17.0309 58.0148 16.9986 58.0178 16.9596 58.0178C16.9004 58.0178 16.8424 58.005 16.7856 57.9796C16.7293 57.9541 16.6826 57.9154 16.6453 57.8633C16.6086 57.8112 16.5902 57.7455 16.5902 57.6662V56.3097ZM18.2655 57.4425V56.6364H18.475V58H18.2655V57.7692H18.2513C18.2193 57.8384 18.1696 57.8973 18.1021 57.9458C18.0347 57.9938 17.9494 58.0178 17.8465 58.0178C17.7612 58.0178 17.6855 57.9991 17.6192 57.9618C17.5529 57.9239 17.5008 57.8671 17.4629 57.7914C17.4251 57.715 17.4061 57.6188 17.4061 57.5028V56.6364H17.6156V57.4886C17.6156 57.5881 17.6435 57.6674 17.6991 57.7266C17.7553 57.7857 17.8269 57.8153 17.9139 57.8153C17.966 57.8153 18.019 57.802 18.0728 57.7754C18.1273 57.7488 18.1729 57.7079 18.2096 57.6529C18.2468 57.5978 18.2655 57.5277 18.2655 57.4425ZM19.3737 58.0284C19.26 58.0284 19.1597 57.9997 19.0727 57.9423C18.9857 57.8843 18.9176 57.8026 18.8685 57.6973C18.8194 57.5913 18.7948 57.4661 18.7948 57.3217C18.7948 57.1785 18.8194 57.0542 18.8685 56.9489C18.9176 56.8435 18.986 56.7621 19.0736 56.7047C19.1612 56.6473 19.2624 56.6186 19.3772 56.6186C19.466 56.6186 19.5361 56.6334 19.5876 56.663C19.6397 56.692 19.6794 56.7251 19.7066 56.7624C19.7344 56.7991 19.756 56.8293 19.7714 56.853H19.7892V56.1818H19.9987V58H19.7963V57.7905H19.7714C19.756 57.8153 19.7341 57.8467 19.7057 57.8846C19.6773 57.9219 19.6367 57.9553 19.5841 57.9849C19.5314 58.0139 19.4613 58.0284 19.3737 58.0284ZM19.4021 57.8402C19.4861 57.8402 19.5571 57.8183 19.6151 57.7745C19.6731 57.7301 19.7172 57.6689 19.7474 57.5907C19.7776 57.512 19.7927 57.4212 19.7927 57.3182C19.7927 57.2164 19.7779 57.1273 19.7483 57.051C19.7187 56.974 19.6749 56.9142 19.6169 56.8716C19.5589 56.8284 19.4873 56.8068 19.4021 56.8068C19.3133 56.8068 19.2393 56.8296 19.1801 56.8752C19.1215 56.9202 19.0774 56.9814 19.0479 57.0589C19.0189 57.1359 19.0044 57.2223 19.0044 57.3182C19.0044 57.4152 19.0191 57.5034 19.0487 57.5827C19.0789 57.6615 19.1233 57.7242 19.1819 57.771C19.2411 57.8171 19.3145 57.8402 19.4021 57.8402ZM20.5464 58.5114C20.5109 58.5114 20.4793 58.5084 20.4514 58.5025C20.4236 58.4972 20.4044 58.4918 20.3937 58.4865L20.447 58.3018C20.4979 58.3149 20.5429 58.3196 20.5819 58.3161C20.621 58.3125 20.6556 58.295 20.6858 58.2637C20.7166 58.2329 20.7447 58.1829 20.7702 58.1136L20.8092 58.0071L20.305 56.6364H20.5322L20.9086 57.723H20.9229L21.2993 56.6364H21.5265L20.9477 58.1989C20.9217 58.2693 20.8894 58.3276 20.8509 58.3738C20.8125 58.4205 20.7678 58.4551 20.7169 58.4776C20.6666 58.5001 20.6098 58.5114 20.5464 58.5114Z" fill="#021620"/>
</svg>
