<svg width="68" height="102" viewBox="0 0 68 102" fill="none" xmlns="http://www.w3.org/2000/svg">
<path d="M2 15.8654C4.90909 16.0207 6.97778 21.3362 10 15.8654C13.0222 10.3946 16.2222 15.2613 18 17.2502C19.7778 19.239 24.4 20.1327 26 16.5579C27.6 12.9832 31.8667 11.9134 34 15.8654C36.1333 19.8174 40.0444 20.2664 42 15.8654C43.9556 11.4644 49.6444 12.6728 50 15.8654C50.3556 19.058 56 20.5 58 15.8654C60 11.2308 61.9365 16 66 15.8654" stroke="#F5F5F5"/>
<path d="M2.81366 97.8852C-0.42703 61.5635 -0.112516 40.786 2.81718 3.72409C26.6166 -0.689244 40.3391 -0.459977 64.8725 3.72832C67.0025 41.1069 67.4919 62.0045 64.8783 97.8833C40.6914 102.477 26.9948 102.68 2.81366 97.8852Z" stroke="#F5F5F5"/>
<line x1="11" y1="29.5" x2="55" y2="29.5" stroke="#F5F5F5"/>
<line x1="11" y1="39.5" x2="55" y2="39.5" stroke="#F5F5F5"/>
<line x1="11" y1="49.5" x2="55" y2="49.5" stroke="#F5F5F5"/>
<line x1="11" y1="59.5" x2="55" y2="59.5" stroke="#F5F5F5"/>
<line x1="11" y1="68.5" x2="55" y2="68.5" stroke="#F5F5F5"/>
<line x1="11" y1="78.5" x2="55" y2="78.5" stroke="#F5F5F5"/>
<line x1="11" y1="88.5" x2="55" y2="88.5" stroke="#F5F5F5"/>
<path d="M7.66087 6.35184C7.50751 6.35184 7.40694 6.3528 7.26862 6.2798C6.93014 6.10116 6.45612 5.86755 6.18793 5.59936C6.00082 5.41225 5.55581 5.05501 5.28335 5.05501C5.01998 5.05501 4.73983 4.90668 4.45883 4.98697C4.15764 5.07302 4.27471 5.67459 4.27471 5.87554C4.27471 6.36518 4.27471 6.85483 4.27471 7.34448C4.27471 7.62918 4.32873 7.96365 4.21867 8.22504C3.96085 8.83738 3.98652 9.69614 3.98652 10.3504C3.98652 11.0346 3.93963 11.5928 3.71435 12.2436C3.52821 12.7813 3.41016 13.2296 3.41016 13.8086C3.41016 13.9784 3.56578 14.2484 3.68233 14.365C3.75228 14.4349 3.91935 14.493 4.02255 14.493C4.14625 14.493 4.16455 14.6242 4.27471 14.6371C4.84044 14.7037 4.98323 15.3382 5.39542 15.5737C5.58737 15.6834 5.74484 15.8343 5.93177 15.95C6.10504 16.0572 6.33094 16.3662 6.54416 16.3662C6.59013 16.3662 6.81898 16.4276 6.85235 16.4543C7.3115 16.8216 7.69536 16.2346 7.87701 15.8259C8.04366 15.4509 8.22675 14.8128 8.59747 14.5811C8.98103 14.3414 9.14384 13.7678 9.49804 13.4844C9.5886 13.4119 9.74172 13.102 9.80624 12.9801C9.92234 12.7608 10.1624 12.5819 10.3426 12.4197C10.6591 12.1349 11.2475 11.8428 11.6594 11.7513C12.1251 11.6478 12.521 11.3492 12.9923 11.323C13.2609 11.3081 13.7948 10.9527 13.9649 10.7827C14.3925 10.355 14.7147 9.93633 15.0096 9.40979C15.2993 8.89235 15.3698 8.08604 15.3698 7.50458C15.3698 6.59602 14.9336 5.84359 14.2891 5.19911C13.5579 4.46793 12.8138 4.55069 11.8395 4.55069C10.7228 4.55069 9.60611 4.55069 8.4894 4.55069C7.9723 4.55069 7.45795 4.46543 7.0845 4.83888C6.39919 5.52418 6.21403 6.50562 6.15191 7.46855C6.04941 9.0572 6.07586 10.6496 6.07586 12.2436C6.07586 12.7449 6.15852 13.37 6.32802 13.8446C6.47726 14.2625 6.95607 14.0371 7.22459 13.7686C7.90663 13.0865 7.82253 11.7765 7.80496 10.9068C7.78647 9.99125 7.04523 8.59356 7.80496 7.79276C8.32275 7.24698 8.99904 6.86007 9.71418 6.64003C10.3539 6.4432 10.2294 7.11411 10.0704 7.57662C9.76337 8.46982 9.53407 9.20128 9.53407 10.1543C9.53407 10.9345 10.1164 10.3621 10.3666 9.93813C10.6307 9.49055 10.9262 9.05105 11.1591 8.58527C11.3835 8.13639 11.4674 7.62517 11.6994 7.18037C11.9179 6.76167 12.0258 6.42389 12.524 6.42389C12.9267 6.42389 12.7878 7.79458 12.7041 8.02491C12.6418 8.19628 12.2114 9.14333 12.488 9.28972C12.871 9.49251 13.2799 9.14494 13.3885 8.7974C13.5656 8.23075 13.4268 8.10561 12.9162 7.82478C11.8873 7.25889 10.9111 6.89127 10.3826 5.77547C10.1951 5.37961 9.93711 4.63624 10.5027 4.47464C10.8762 4.36794 11.1478 3.92602 11.5514 3.90228C12.084 3.87095 12.5675 3.75819 13.1003 3.75819C14.2448 3.75819 15.3964 3.54205 16.5586 3.54205C17.114 3.54205 17.7555 3.65485 17.9474 4.27852C18.1748 5.01757 17.7237 5.36678 17.207 5.88354C16.8543 6.23624 16.7328 7.32932 16.9388 7.79276C17.1378 8.24044 17.5155 9.20655 17.0589 9.59792C16.6698 9.93141 16.3426 10.4704 15.8741 10.7306C15.6465 10.8571 15.4616 11.019 15.2617 11.1789C15.2107 11.2197 15.0643 11.4012 15.0256 11.4671C14.9531 11.5903 14.7933 11.5893 14.7214 11.7153C14.6322 11.8714 14.6004 11.6401 14.7214 11.7913C14.7905 11.8777 14.8751 11.8927 14.9535 11.9554C15.0672 12.0463 15.516 11.9121 15.6019 11.8433C16.154 11.4017 16.8001 10.9604 17.4231 10.6306C17.8895 10.3837 18.3106 10.0995 18.828 9.97015C19.7437 9.74122 20.7214 9.36189 21.5658 8.9455C21.6706 8.89377 22.5177 8.59386 22.4863 8.51322C22.3866 8.2568 22.4303 7.95825 22.4303 7.68469C22.4303 7.35624 22.7713 7.25351 23.0827 7.29244C23.7732 7.37875 24.2202 8.01518 24.8639 7.48857C25.3569 7.08517 26.3933 7.28844 26.9772 7.28844C27.469 7.28844 28.1249 7.39879 28.5702 7.14435C28.8472 6.98609 29.4011 7.01015 29.6189 6.76811C29.8903 6.46655 29.1687 5.97465 28.9865 5.88354C28.4811 5.63086 27.9193 5.55934 27.3615 5.55934C27.108 5.55934 26.8545 5.55934 26.601 5.55934C26.1018 5.55934 25.6426 5.8899 25.2241 6.1357C24.2817 6.68918 23.4637 7.43752 22.4463 7.86481C21.9054 8.09199 21.3046 8.45509 20.7092 8.50922C20.1624 8.55893 19.8785 8.29501 19.6605 7.79676C19.4683 7.35742 19.525 7.15298 19.9807 6.92821C20.9935 6.42875 21.9792 6.35184 23.0787 6.35184C23.1938 6.35184 23.4757 6.35511 23.567 6.26379C23.7242 6.10662 22.8763 6.07016 22.8226 6.06766C21.6963 6.01528 20.5335 6.12486 19.4764 6.53596C18.9507 6.74041 18.3091 6.78412 17.7473 6.78412C17.5308 6.78412 16.8876 6.855 16.8147 6.6C16.6513 6.02815 17.3715 5.4285 17.7433 5.13106C18.1586 4.79881 18.8238 4.74831 19.3323 4.69478C19.6445 4.66193 19.9543 4.2646 19.5164 4.13443C19.1783 4.03389 18.8534 3.88717 18.5238 3.75819C18.2742 3.66052 17.986 3.47 17.7153 3.47C17.3907 3.47 17.3124 3.68938 17.4591 3.50602C17.8113 3.06586 18.4607 3.03773 18.9721 3.03773C19.2243 3.03773 19.4764 3.03773 19.7286 3.03773C20.0444 3.03773 20.3149 2.89363 20.6252 2.89363C20.9263 2.89363 21.2427 2.76135 21.5497 2.74954C21.7997 2.73993 22.27 2.69271 22.5023 2.58944C22.9908 2.37235 23.5906 2.46136 24.1234 2.46136C25.3647 2.46136 26.551 2.17317 27.7977 2.17317C28.5387 2.17317 29.27 2.15807 29.9991 2.24922C30.4572 2.30648 31.0441 2.67605 31.1639 3.14179C31.3432 3.83927 30.8868 3.89041 30.2673 3.99033C29.426 4.12603 28.6112 4.46134 27.7577 4.54669C26.7884 4.64362 25.7955 4.47995 24.8238 4.55469C24.2459 4.59915 23.6581 4.75074 23.0787 4.76683C22.6115 4.77981 22.1766 4.78206 21.7259 4.92693C20.9699 5.16991 20.5397 6.0478 20.3049 6.7521C20.0392 7.54939 19.794 8.62738 19.9847 9.48584C20.0221 9.65405 20.2545 9.74915 20.373 9.84607C20.4864 9.93883 20.8048 10.2418 20.7012 10.1383C19.7504 9.18751 17.1932 8.31042 16.2664 9.61793C15.6251 10.5226 16.2191 11.3107 17.0269 11.7513C17.1735 11.8313 18.0798 12.0811 18.0355 12.0035C17.9122 11.7877 17.6449 11.6567 17.3871 11.7713C17.0603 11.9165 17.0269 12.1512 17.0269 12.4758C17.0269 12.6966 17.0585 12.6383 16.8828 12.5478C16.6694 12.4379 16.4344 12.3699 16.2023 12.3277C15.798 12.2542 16.3379 12.5151 16.4505 12.6559C16.5887 12.8286 16.5498 13.0862 16.6826 13.2522C16.8327 13.4398 16.9696 13.6753 17.1549 13.8606C17.4815 14.1872 17.7561 14.511 18.2116 14.6411C18.6981 14.7801 19.6238 15.1749 19.9807 14.461C20.1977 14.0272 19.9645 13.3702 19.8006 12.9441C19.7101 12.7086 19.6812 12.0549 19.8727 11.8634C20.2196 11.5164 20.8192 11.1987 21.2936 11.0909C21.6932 11.0001 22.4415 10.8812 22.6625 11.323C23.0839 12.166 20.5172 12.5359 20.0368 12.6519C19.7703 12.7162 19.4974 12.743 19.9247 12.908C20.2395 13.0297 20.5558 13.0894 20.8813 13.1602C21.9996 13.4033 22.4488 12.4241 22.8466 11.5472C23.0864 11.0185 23.3056 10.3601 23.6551 9.8941C23.9189 9.54229 24.3517 9.35096 24.7358 9.16164C25.1981 8.93371 25.7336 8.80837 26.2487 8.80141C26.5568 8.79724 27.2525 8.6859 27.4935 8.9455C27.9026 9.38599 26.048 9.99586 25.8245 10.0742C24.8626 10.4114 23.7643 10.6471 22.8906 11.1789C22.5316 11.3974 22.2862 11.4948 22.2862 11.9634C22.2862 12.3519 22.7134 12.6229 23.0467 12.7319C23.4348 12.8588 23.7089 12.6561 23.9793 12.3957C24.526 11.8692 25.004 11.1593 25.3522 10.4905C25.6496 9.91912 25.9884 9.37777 26.681 9.37777C26.7956 9.37777 27.1793 9.30894 27.1853 9.46583C27.2065 10.0152 26.8199 10.4177 26.4969 10.8187C25.8152 11.6649 25.1776 12.6821 24.9679 13.7726C24.9245 13.9985 24.7486 14.6663 24.8118 14.445C24.8947 14.1549 25.0482 13.8695 25.2241 13.6285C25.4706 13.2907 25.6769 12.908 26.1407 12.908C26.3621 12.908 26.9098 12.5518 26.7811 12.7319C26.5457 13.0615 25.978 13.1788 25.6884 13.4684C25.5311 13.6256 25.331 13.7867 25.2241 13.9887C25.1005 14.2222 25.0076 14.4701 24.7718 14.6011C24.4985 14.7529 24.1527 14.6809 23.9072 14.8172C23.4851 15.0518 22.7447 14.9253 22.2702 14.9253C21.6391 14.9253 21.0081 14.9253 20.377 14.9253C20.0029 14.9253 20.1233 15.3595 19.9647 15.5577C19.7736 15.7966 19.8412 15.8619 19.4764 15.8619C19.3743 15.8619 19.1904 15.8241 19.1322 15.934C19.0351 16.1174 19.1922 16.1011 19.2603 16.1861C19.3741 16.3284 19.7702 16.2942 19.9447 16.2942C20.3651 16.2942 21.1093 16.7699 21.4937 16.5664C21.8307 16.388 21.8922 16.3475 22.2502 16.5464C22.5293 16.7014 22.7286 16.7265 23.0427 16.7265C23.3383 16.7265 24.2315 16.627 24.2315 16.2221C24.2315 15.8836 24.0389 16.2309 23.9433 16.3983C23.8412 16.5769 23.6889 16.7022 23.583 16.8345C23.2366 17.2676 22.7893 17.0953 22.3583 17.2868C21.891 17.4945 21.3373 17.1919 20.9534 16.9786C20.7693 16.8764 20.675 16.7055 20.5011 16.5664C20.4877 16.5557 20.4654 16.543 20.469 16.5263C20.5804 16.0201 20.9732 15.3598 21.2015 14.9453C21.8912 13.6934 22.7699 12.7097 23.7431 11.6672C24.9428 10.3822 26.146 9.10156 27.3374 7.80877C27.7657 7.34402 27.9731 7.28844 28.5862 7.28844C29.0804 7.28844 29.6108 7.34222 30.0512 7.59263C30.4279 7.80684 30.8048 8.16796 31.2559 8.22104C32.1067 8.32112 32.923 8.04483 33.7615 8.0049C34.2142 7.98334 34.6918 7.87751 35.1464 7.94486C35.599 8.01191 36.1035 8.53488 36.4473 8.80141C37.2895 9.45436 38.2078 10.1563 39.233 10.4745C39.3414 10.5081 39.5332 10.6305 39.4332 10.5305C39.3095 10.4069 39.2638 10.2112 39.181 10.0622C38.7101 9.21468 38.2434 8.68487 37.2758 8.4732C36.7086 8.34912 36.4332 8.13698 36.043 7.72072C35.6994 7.35424 35.3136 6.94699 34.7982 6.87217C34.1915 6.7841 33.5528 6.87876 32.941 6.85216C32.7335 6.84314 32.0274 6.8021 31.8843 6.56798C31.7458 6.3413 32.6146 6.27562 32.7169 6.26379C34.3714 6.07221 36.0471 6.10796 37.7041 6.24377C38.7949 6.33318 39.869 6.35184 40.9621 6.35184C41.1056 6.35184 41.9887 6.43116 42.0228 6.31182C42.1457 5.88163 40.8714 5.40166 40.69 5.31918C39.4833 4.77071 38.288 4.83888 36.9916 4.83888C35.9633 4.83888 34.9158 4.95353 33.8936 5.07102C33.6662 5.09716 32.9266 5.36076 32.7329 5.16709C32.5708 5.00497 32.5167 4.65842 32.5167 4.44262C32.5167 4.01343 33.0876 4.04637 33.3733 4.04637C34.1551 4.04637 34.937 4.04637 35.7188 4.04637C36.7436 4.04637 36.3862 3.47083 35.5507 3.38195C34.2339 3.24186 32.8805 3.32591 31.5561 3.32591C31.2564 3.32591 30.7568 3.39399 30.5715 3.06975C30.4727 2.89688 29.7842 2.60821 30.1072 2.28525C30.2696 2.12287 30.6024 2.14705 30.8036 2.08512C31.1588 1.97584 31.5693 2.02908 31.9404 2.02908C32.3126 2.02908 32.6849 2.02908 33.0571 2.02908C33.5273 2.02908 33.9997 2.17317 34.466 2.17317C35.117 2.17317 35.8356 2.23965 36.4793 2.33328C36.9202 2.39742 37.4245 2.51712 37.8642 2.5334C38.3727 2.55224 38.9233 2.68071 39.4332 2.75354C40.0151 2.83667 40.5643 3.08292 41.1302 3.18582C41.481 3.24959 41.7762 3.4889 42.1349 3.54205C42.3662 3.57632 42.8363 3.69911 42.8914 3.97432C43.0963 4.99882 43.2372 6.32152 42.347 7.09632C41.9456 7.44566 41.4325 7.68083 40.9461 7.88082C39.7419 8.37603 38.4134 8.73028 37.1197 8.86545C35.7909 9.00427 34.5833 8.71012 33.2772 8.60128C32.8035 8.5618 32.0811 8.48444 31.6242 8.66132C31.0279 8.89213 30.3916 9.04087 29.819 9.32174C29.3908 9.53179 28.5088 9.70077 28.3221 10.1863C28.2297 10.4265 27.8119 11.3199 28.0859 11.5392C28.2567 11.6758 28.5858 11.6112 28.8064 11.6112C29.0822 11.6112 29.3266 11.4768 29.5789 11.4671C29.6968 11.4626 30.4531 11.4792 30.2113 11.4671C29.5086 11.432 29.0056 11.1955 28.6263 11.8594C28.57 11.9579 28.4822 12.0132 28.4822 12.1435C28.4822 12.2835 28.5552 11.8649 28.6423 11.7553C28.9371 11.384 29.4892 11.3337 29.9231 11.267C30.4853 11.1805 31.1131 11.251 31.6802 11.251C31.9918 11.251 32.1486 11.2759 32.4167 11.3951C32.9497 11.632 33.3526 12.183 33.8856 12.4597C34.2021 12.6241 35.0544 12.657 34.6781 12.0595C34.4226 11.6537 33.7304 11.6023 33.3092 11.7193C32.7257 11.8814 32.0634 11.6722 31.4681 11.7913C30.7026 11.9444 29.8275 11.8139 29.0585 11.8994C28.8704 11.9203 27.8225 12.6884 27.9098 12.2956C28.1883 11.0424 29.2947 10.6026 30.4274 10.6026C31.2233 10.6026 32.3593 10.3504 32.5207 11.319C32.571 11.6204 32.6439 12.7333 33.1652 12.7639C33.3277 12.7735 33.6305 12.8623 33.7775 12.9441C34.0962 13.1211 34.4285 13.1242 34.7862 13.1242C35.0566 13.1242 35.1824 12.7991 35.1824 12.5478C35.1824 11.9677 35.3266 11.3589 35.5427 10.8187" stroke="#F5F5F5" stroke-width="3" stroke-linecap="round"/>
<path d="M16.8828 12.3316C16.201 12.3316 15.5193 12.3316 14.8375 12.3316C14.2603 12.3316 13.8505 12.0435 13.2805 12.0435" stroke="#F5F5F5" stroke-width="3" stroke-linecap="round"/>
<path d="M19.9807 16.8707C19.9807 17.1916 19.9973 17.5899 20.449 17.339C20.9713 17.0488 21.5415 16.8282 22.1061 16.6545C22.7055 16.4701 23.2231 16.1335 23.7831 15.918C23.9675 15.8471 24.0541 15.6163 24.2314 15.5178C24.3456 15.4543 24.5411 15.3867 24.5917 15.2856" stroke="#F5F5F5" stroke-width="3" stroke-linecap="round"/>
<path d="M25.0239 15.2136C25.2098 15.0484 25.4171 14.6568 25.6003 14.5652" stroke="#F5F5F5" stroke-width="3" stroke-linecap="round"/>
<path d="M40.2957 14.8394C40.2957 15.2062 40.3357 15.521 40.1016 15.8219C39.9654 15.9971 39.9136 16.1835 39.7183 16.3241C39.617 16.397 39.4187 16.5224 39.3811 16.654C39.2187 17.2225 38.0352 17.0228 37.5883 17.0228C37.4685 17.0228 37.2901 16.9324 37.1953 16.8481C37.0945 16.7585 36.9058 16.5377 36.7781 16.5012C36.4432 16.4055 36.2767 15.96 35.9969 15.8001C35.9117 15.7514 35.7096 15.4908 35.6573 15.4071C35.5951 15.3076 35.3865 15.2139 35.2958 15.1232C35.1656 14.9931 35.0602 14.8291 34.978 14.6647C34.8244 14.3576 34.9295 14.006 34.8591 13.6822C34.629 12.6238 34.9733 11.4811 34.4103 10.5066C34.2156 10.1696 34.1001 9.63435 34.4225 9.36157C34.8421 9.00645 35.5273 8.71699 36.0697 8.64834C36.6722 8.57207 37.1868 8.49569 37.4476 9.15294C37.8351 10.1294 37.2999 11.3189 37.1298 12.2824C37.054 12.7121 37.0643 13.1384 37.0643 13.5731C37.0643 13.8988 37.0244 14.2544 37.074 14.5774C37.125 14.9089 37.1513 15.0527 37.4355 15.2106C37.7346 15.3768 38.6804 12.1918 38.8887 11.7827C39.0857 11.3957 39.4889 11.0612 39.9051 10.9312C39.9671 10.9118 40.238 10.8662 40.286 10.919C40.4342 11.0821 40.1278 11.4538 40.058 11.5741C39.7778 12.0567 39.432 12.495 39.3108 13.049C39.2483 13.3345 39.0776 13.8534 39.2137 14.1407C39.3862 14.5049 39.7185 14.3223 39.9051 14.0704C40.0976 13.8106 40.2508 13.5364 40.4267 13.2674C40.494 13.1645 40.54 12.9269 40.6451 12.8744" stroke="#F5F5F5" stroke-width="3" stroke-linecap="round"/>
<path d="M3.57448 14.5918C3.51347 14.5918 3.47499 14.5932 3.42261 14.6194" stroke="#F5F5F5" stroke-width="3" stroke-linecap="round"/>
<path d="M6.65742 7.30929C6.65742 6.98933 6.70769 6.61839 6.6002 6.3174C6.54048 6.15019 6.61927 5.96568 6.61927 5.79179C6.61927 5.61037 6.58136 5.5078 6.54509 5.34459C6.51197 5.19553 6.46667 5.03514 6.46667 4.8868C6.46667 4.77834 7.03586 4.90588 7.12369 4.90588C7.38791 4.90588 7.65213 4.90588 7.91635 4.90588C8.25135 4.90588 8.50897 4.7857 8.8277 4.69606C9.11384 4.61558 9.40487 4.51344 9.67122 4.38026C9.93498 4.24838 10.2795 4.06659 10.572 4.06659C11.6541 4.06659 12.7861 4.23397 13.8549 4.00725C14.3651 3.89902 14.869 3.8091 15.3724 3.66814C15.655 3.58903 15.908 3.44299 16.1863 3.35023C16.3898 3.2824 16.6256 3.28462 16.8242 3.20823C16.9853 3.1463 17.1718 3.07471 17.3392 3.07471" stroke="#F5F5F5" stroke-width="3" stroke-linecap="round"/>
<path d="M32.9805 5.47828C32.4998 5.47828 32.0104 5.5065 31.5308 5.47828C31.367 5.46865 31.6248 4.86414 31.6516 4.80219C31.8614 4.31691 32.4424 4.02714 32.9317 3.9184C33.287 3.83945 33.65 3.77459 34.002 3.68526C34.4349 3.57542 34.8956 3.60525 35.3372 3.54114C35.9467 3.45267 36.6644 3.35511 37.1981 3.01553C37.4688 2.84325 37.5511 2.70935 37.6368 2.40938C37.6928 2.21332 38.2867 2.31189 38.4655 2.31189C38.7686 2.31189 39.0716 2.31189 39.3747 2.31189C39.5195 2.31189 39.6644 2.31189 39.8092 2.31189C39.9337 2.31189 39.9973 2.37442 40.1144 2.38818C40.3238 2.41282 40.5379 2.56643 40.7629 2.57893C40.8925 2.58613 41.0282 2.65523 41.1635 2.65523C41.3291 2.65523 41.4631 2.67082 41.6213 2.71245C41.9826 2.80754 42.3629 2.80484 42.717 2.9138C43.0198 3.00698 43.3396 3.05775 43.6432 3.15117C43.8291 3.20836 44.0325 3.22056 44.226 3.22747C44.4567 3.23571 44.6919 3.31432 44.9212 3.3398C44.9731 3.34557 45.3393 3.35936 45.3324 3.3504C45.277 3.27918 45.0914 3.23404 45.006 3.22747C44.7717 3.20945 44.442 3.00908 44.2345 2.90532C44.1109 2.84351 43.9118 2.89088 43.7767 2.88413C43.6494 2.87776 43.528 2.84598 43.3952 2.84598C43.2848 2.84598 43.2013 2.83691 43.107 2.80995C43.0164 2.78407 42.912 2.68843 42.823 2.69338C42.73 2.69855 42.6754 2.8575 42.6322 2.92228C42.4645 3.17385 42.2952 3.41814 42.1554 3.68738C41.7834 4.40369 41.6785 5.17982 41.6785 5.97634C41.6785 6.32289 41.6493 6.68193 41.7188 7.02333C41.7964 7.40486 41.9352 7.76405 42.0303 8.14026C42.1264 8.52002 42.269 9.0372 42.1448 9.43734C42.0276 9.81479 41.776 10.1337 41.7145 10.5331C41.6691 10.8286 41.6404 11.1689 41.6404 11.4677C41.6404 11.8063 41.6744 12.1249 41.5174 12.4215C41.4208 12.6039 41.3403 12.7938 41.2398 12.9746C41.1296 13.173 41.0004 13.333 40.8858 13.5278C40.8398 13.6061 40.7858 13.6823 40.765 13.7758C40.7607 13.7955 40.7089 14.0939 40.7544 14.0534C40.8362 13.9808 40.8779 13.7626 40.9325 13.6613C41.0048 13.527 41.0784 13.3804 41.2377 13.3349C41.3075 13.315 41.4138 13.2129 41.4878 13.176C41.6099 13.1149 41.7297 13.0425 41.8608 13.0022C42.1046 12.9272 42.3154 12.8139 42.5347 12.6885C42.71 12.5884 42.8249 12.4698 43.0328 12.4236C43.2809 12.3685 43.5544 12.2408 43.8064 12.2307C44.0389 12.2214 44.2352 12.1024 44.4465 12.0421C44.5959 11.9994 44.8859 11.9579 44.9594 11.8111" stroke="#F5F5F5" stroke-width="3" stroke-linecap="round"/>
<path d="M58.2354 9.82716C57.9201 9.47242 59.1256 8.7121 59.3227 8.56611C60.0086 8.05799 60.6955 7.56194 61.4315 7.12703C61.7377 6.94609 62.3395 6.71168 62.3958 6.31742C62.4303 6.07606 62.6871 5.73937 62.8705 5.59258C62.9661 5.51613 63.072 5.42418 63.1779 5.36368C63.3292 5.27719 63.2178 5.17294 63.4237 5.17294C63.6697 5.17294 63.1438 5.20789 63.0719 5.21108C62.7561 5.22512 62.4455 5.24923 62.1266 5.24923C61.9048 5.24923 61.683 5.24923 61.4611 5.24923C61.356 5.24923 61.0885 5.24276 61.0118 5.18141C60.9334 5.11867 60.7021 5.15669 60.6388 5.07756C60.4985 4.90213 60.2681 5.15129 60.181 5.24923" stroke="#F5F5F5" stroke-width="3" stroke-linecap="round"/>
<path d="M61.5162 4.98227C61.3557 4.98227 61.3622 4.82967 61.2301 4.82967C60.9948 4.82967 60.7596 4.82967 60.5243 4.82967C60.2736 4.82967 60.0261 4.75337 59.7783 4.75337C59.3627 4.75337 58.9508 4.743 58.5384 4.79152C57.6596 4.89491 56.7991 5.10151 55.9167 5.16454C54.7592 5.24722 53.6147 5.21464 52.4557 5.25143C51.3044 5.28798 50.2088 5.69418 49.0838 5.89785C48.1228 6.07182 47.1404 6.2178 46.1886 6.43194C45.641 6.55516 45.0506 6.83934 44.616 7.19493C44.2492 7.49509 44.1201 7.85119 44.1201 8.31398C44.1201 8.97263 43.9282 9.54016 43.7619 10.1685C43.7364 10.2649 43.4577 11.2321 43.6072 11.2748C43.7088 11.3038 43.8613 11.2099 43.9294 11.1455C44.1795 10.9089 44.4655 10.7156 44.739 10.5054C45.609 9.83697 46.4883 9.20264 47.4391 8.65308C48.4126 8.09039 49.515 7.75081 50.5843 7.42595C52.0009 6.99558 53.3837 6.39379 54.8909 6.39379C55.4971 6.39379 56.0983 6.35564 56.7052 6.35564C56.9227 6.35564 57.1403 6.35564 57.3579 6.35564C57.4942 6.35564 57.7952 6.29874 57.9111 6.37896C58.1408 6.53801 58.2982 6.84874 58.3413 7.11863C58.3947 7.45244 58.063 7.6689 57.8242 7.83499C57.3487 8.16574 56.8066 8.39758 56.2431 8.53016C55.5904 8.68374 54.8982 8.74224 54.2297 8.75694C53.6696 8.76924 53.1085 8.72703 52.5532 8.81628C51.8646 8.92695 51.264 9.16404 50.6246 9.42455C50.1728 9.6086 49.7346 9.82215 49.2703 9.97983C48.883 10.1113 48.4809 10.1834 48.0876 10.2766C47.6577 10.3784 47.1279 10.4233 46.7906 10.7428C46.4129 11.1006 46.9709 11.2769 47.2674 11.2769C48.1398 11.2769 48.9849 11.5592 49.7471 11.9827C49.8993 12.0672 50.0696 12.1364 50.224 12.2222C50.2953 12.2618 50.3617 12.3051 50.4317 12.3451C50.5 12.3841 50.4988 12.4962 50.5483 12.5358C50.6228 12.5954 50.6506 12.828 50.6903 12.9173C50.8089 13.1843 50.5766 12.899 50.491 12.8495C50.3136 12.7468 50.1545 12.6159 49.976 12.5168C49.9462 12.5002 49.6306 12.3818 49.6306 12.3832C49.6306 12.4186 49.8441 12.6379 49.8828 12.6694C50.0139 12.7759 50.1153 12.9067 50.2431 13.0148C50.4359 13.178 50.5838 13.4112 50.7772 13.5659C50.8649 13.6361 50.9077 13.7392 50.9573 13.8329C51.0032 13.9195 51.0581 14.0025 51.1205 14.0788C51.171 14.1404 51.1734 14.2415 51.235 14.2907C51.3372 14.3725 51.3116 14.6505 51.36 14.7655C51.3939 14.8459 51.3653 14.9767 51.3685 15.0622C51.3726 15.1743 51.4066 15.2799 51.4066 15.397C51.4066 15.5539 51.3653 15.7708 51.4448 15.9099C51.5211 16.0434 51.84 16.0074 51.9598 16.0074C52.3299 16.0074 52.8069 16.0901 53.1615 15.999C53.4417 15.9269 53.7956 15.7549 54.0008 15.5496C54.2665 15.284 54.3575 14.9066 54.4967 14.5662C54.7293 13.9978 54.7638 13.4334 54.7638 12.8262C54.7638 12.6466 54.784 12.4459 54.6451 12.3069C54.3695 12.0314 53.9526 11.8714 53.6023 11.7178C53.2843 11.5782 52.9726 11.4392 52.6656 11.2769C52.4113 11.1425 52.2053 10.9118 51.9789 10.7343C51.8815 10.658 51.7961 10.562 51.7203 10.4673C51.7 10.442 51.7128 10.3951 51.75 10.3995C51.8266 10.4085 51.9058 10.6494 51.9322 10.7047C52.4659 11.8217 52.3607 13.9336 54.0029 14.0978C54.2605 14.1236 54.2715 13.8944 54.306 13.6761C54.4118 13.0057 54.4774 12.3294 54.5815 11.6584C54.7012 10.887 54.9276 9.71496 55.6624 9.27407C56.124 8.99712 56.373 9.51921 56.366 9.90354C56.3576 10.3669 55.8988 10.7326 55.6497 11.0862C55.5044 11.2923 55.2666 11.6417 55.2597 11.9043C55.2557 12.0581 55.2283 12.2515 55.2618 12.4023C55.283 12.4976 55.4159 12.5342 55.4717 12.4532C55.9308 11.7853 56.4485 11.1666 56.8789 10.4779C56.8931 10.4552 57.0876 10.1425 57.1206 10.1791C57.1785 10.2435 57.1236 10.5242 57.1121 10.5945C57.0801 10.7901 56.9993 10.9802 56.9468 11.1709C56.7632 11.8372 56.3518 12.4259 56.1371 13.0699" stroke="#F5F5F5" stroke-width="3" stroke-linecap="round"/>
<path d="M53.8481 15.4351C53.8481 15.59 53.588 15.5791 53.5048 15.6831C53.4432 15.7601 53.1615 15.9506 53.1615 16.0264C53.1615 16.1718 53.0866 16.3006 52.9792 16.3973C52.9419 16.4309 52.9074 16.4276 52.8605 16.4524C52.7084 16.533 52.6004 16.6735 52.4705 16.7831C52.3992 16.8432 52.2602 16.9116 52.1696 16.9229C52.0865 16.9333 52.3718 17.1096 52.4366 17.1328C52.5159 17.1611 52.6013 17.1518 52.6846 17.1518C52.8446 17.1518 52.9993 17.1741 53.1424 17.0946C53.4097 16.9461 53.8741 17.0517 54.1745 16.9971C54.35 16.9652 54.5517 16.9006 54.6408 16.7322C54.7117 16.5983 54.879 16.5185 54.9629 16.3888C55.1221 16.1429 55.4987 16.0731 55.6496 15.8166C55.6973 15.7355 55.8538 15.6083 55.9273 15.5496C56.0463 15.4543 56.0906 15.251 56.1943 15.1681C56.284 15.0964 56.328 14.8702 56.3851 14.7675C56.4613 14.6302 56.5968 14.5183 56.6712 14.3881C56.756 14.2398 56.9574 14.1417 57.0442 13.9854C57.126 13.8382 57.2147 13.6142 57.3197 13.4895C57.4258 13.3635 57.446 13.2106 57.5677 13.0889C57.7135 12.9432 57.7982 12.744 57.9492 12.593C58.1374 12.4048 58.4225 12.0188 58.7313 12.0017C59.1511 11.9783 59.4381 11.662 59.6765 11.3319C59.8208 11.1322 59.9196 10.8917 60.0495 10.6876C60.2487 10.3746 60.5103 10.1082 60.7723 9.84622C60.994 9.62443 61.2613 9.44854 61.5183 9.27186C61.8127 9.06945 62.2274 8.73906 62.3173 8.37959C62.396 8.06498 62.6128 7.83153 62.7751 7.56786C62.8638 7.42373 62.8589 7.25529 62.9743 7.12702C63.0669 7.02417 63.2547 6.93323 63.3855 6.88965" stroke="#F5F5F5" stroke-width="3" stroke-linecap="round"/>
<path d="M59.418 12.7646C59.762 12.7646 60.1061 12.7646 60.4501 12.7646C60.6044 12.7646 60.7561 12.8028 60.9143 12.8028C61.1285 12.8028 61.3554 12.5927 61.5543 12.5145C62.1627 12.2755 62.2139 11.7391 62.347 11.1624C62.4337 10.7867 62.5264 10.4482 62.737 10.1323" stroke="#F5F5F5" stroke-width="3" stroke-linecap="round"/>
<path d="M55.9464 17.0375C55.9596 16.9187 56.2065 16.656 56.3279 16.656" stroke="#F5F5F5" stroke-width="3" stroke-linecap="round"/>
<path d="M47.2483 6.0123C46.9686 6.0123 46.6888 6.0123 46.409 6.0123C45.9889 6.0123 45.6691 5.62628 45.646 5.21116C45.6417 5.13271 45.5519 4.91964 45.5125 4.84874C45.4359 4.71088 45.3752 4.56021 45.3409 4.40579C45.3016 4.22901 45.1687 3.28896 45.4362 3.22951C45.9513 3.11505 46.5928 3.3302 47.0661 3.48596C47.9445 3.77506 48.7196 4.26016 49.6327 4.46513C50.6402 4.69132 51.7586 4.63349 52.7715 4.48632C53.3342 4.40456 53.9207 4.44817 54.4882 4.44817C54.8526 4.44817 55.1106 4.48749 55.4504 4.60077" stroke="#F5F5F5" stroke-width="3" stroke-linecap="round"/>
<path d="M55.5268 4.6772C55.2194 4.64304 55.0383 4.21887 54.8317 4.02018C54.8044 3.994 54.6663 3.9287 54.6663 3.88454C54.6663 3.84313 54.8687 3.94529 54.8825 3.95448C55.0679 4.07806 55.3488 4.1376 55.5671 4.18125C55.9701 4.26185 56.3971 4.28519 56.8069 4.2957C57.0409 4.3017 57.2575 4.40388 57.4894 4.41015C57.7635 4.41756 58.0091 4.5246 58.2736 4.5246C58.4039 4.5246 58.5304 4.58622 58.6551 4.6009C59.2305 4.6686 57.4966 4.63905 56.9172 4.63905C56.3245 4.63905 55.7955 4.62887 55.2174 4.48433C54.694 4.35348 54.1854 4.17298 53.6617 4.04561C53.2927 3.95583 52.9177 3.90637 52.5596 3.79128C52.1612 3.6632 51.8066 3.40496 51.3834 3.33985C51.1972 3.31121 50.9918 3.26567 50.8048 3.26567C50.6113 3.26567 50.3656 3.30788 50.1859 3.236C49.8166 3.08827 49.3425 3.04873 48.9524 2.96895C48.4599 2.86821 48.0066 2.76973 47.5006 2.76973C47.0096 2.76973 46.5186 2.76973 46.0276 2.76973C45.7279 2.76973 45.3553 2.70944 45.0697 2.7888C44.8148 2.8596 44.6801 2.97123 44.5695 3.20633C44.5245 3.30199 44.5135 3.40119 44.472 3.49456C44.4085 3.63735 44.8543 3.90673 44.9361 3.99051C45.5112 4.5796 46.0319 5.22078 46.6168 5.80048C47.3998 6.57654 48.4041 7.3048 49.3763 7.82664C50.36 8.35468 51.3976 8.65435 52.4452 9.0241C53.24 9.3046 54.0432 9.57733 54.8528 9.81041C55.7885 10.0798 56.7588 10.3615 57.7395 10.3615" stroke="#F5F5F5" stroke-width="3" stroke-linecap="round"/>
<path d="M55.7556 6.88976C55.5796 6.86776 55.4587 6.56713 55.3911 6.43197C55.2888 6.22736 55.1454 6.06016 55.0393 5.85973C54.8846 5.56761 54.6112 5.31042 54.6112 4.96322C54.6112 4.86285 54.5627 4.60059 54.4374 4.56477C54.3327 4.53487 54.3163 4.51793 54.2381 4.43973C54.1894 4.39095 54.1777 4.2922 54.1343 4.25746C54.0459 4.18674 54.0142 3.90667 53.8291 4.00949C53.7212 4.06941 53.3904 3.94829 53.3904 4.10486" stroke="#F5F5F5" stroke-width="3" stroke-linecap="round"/>
<path d="M62.6989 10.3614C62.7133 10.2459 63.1379 10.5894 63.1546 10.531C63.2057 10.3521 63.3093 10.1716 63.3093 9.97994C63.3093 9.82127 63.2876 9.64505 63.3665 9.50307C63.4576 9.33909 63.4203 9.15782 63.4809 8.98806C63.5263 8.86118 63.6145 8.47183 63.6145 8.60656C63.6145 8.8174 63.5137 9.03304 63.5021 9.25298C63.4923 9.44077 63.5 9.63074 63.5 9.81887C63.5 10.1313 63.4639 10.3978 63.4258 10.7027C63.392 10.9732 63.4323 11.2544 63.3834 11.5229C63.3272 11.8322 63.0443 12.5163 62.7158 12.6101C62.5578 12.6553 62.5407 12.8193 62.5463 12.9641C62.5521 13.116 62.8384 13.2533 62.9659 13.2608C63.2406 13.2769 63.5606 13.3928 63.7098 13.6614C63.8621 13.9355 64.1524 13.9119 64.3775 14.0619" stroke="#F5F5F5" stroke-width="3" stroke-linecap="round"/>
<path d="M63.8815 9.90356C63.8815 10.2786 63.9196 10.6611 63.9196 11.029C63.9196 11.3299 64.1867 11.5893 64.1867 11.8873" stroke="#F5F5F5" stroke-width="3" stroke-linecap="round"/>
<path d="M17.216 11V10.656L18.144 10.488L18.016 10.664V5.784L18.16 5.904H16.616L16.776 5.768L16.616 6.784H16.216V5.416H20.464V6.784H20.064L19.904 5.784L20.064 5.904H18.52L18.664 5.784V10.664L18.544 10.488L19.464 10.656V11H17.216ZM22.6332 6.704C23.2199 6.704 23.6786 6.888 24.0093 7.256C24.3453 7.624 24.5133 8.144 24.5133 8.816C24.5133 9.26933 24.4306 9.66667 24.2653 10.008C24.1053 10.344 23.8759 10.6053 23.5773 10.792C23.2786 10.9787 22.9186 11.072 22.4973 11.072C21.9213 11.072 21.4706 10.8933 21.1453 10.536C20.8199 10.1733 20.6573 9.65333 20.6573 8.976C20.6573 8.50667 20.7346 8.104 20.8893 7.768C21.0493 7.42667 21.2759 7.16533 21.5693 6.984C21.8679 6.79733 22.2226 6.704 22.6332 6.704ZM22.6013 7.176C22.1906 7.176 21.8759 7.33067 21.6573 7.64C21.4386 7.94933 21.3293 8.384 21.3293 8.944C21.3293 9.49333 21.4333 9.90667 21.6413 10.184C21.8493 10.4613 22.1479 10.6 22.5373 10.6C22.8199 10.6 23.0573 10.5307 23.2493 10.392C23.4466 10.248 23.5933 10.0453 23.6893 9.784C23.7906 9.52267 23.8413 9.21067 23.8413 8.848C23.8413 8.304 23.7319 7.89067 23.5133 7.608C23.2999 7.32 22.9959 7.176 22.6013 7.176ZM29.2604 5.416C29.6177 5.416 29.9457 5.472 30.2444 5.584C30.5484 5.69067 30.8124 5.856 31.0364 6.08C31.2604 6.29867 31.4364 6.57867 31.5644 6.92C31.6924 7.256 31.7564 7.656 31.7564 8.12C31.7564 8.74933 31.6417 9.27733 31.4124 9.704C31.1884 10.1307 30.879 10.4533 30.4844 10.672C30.0897 10.8907 29.639 11 29.1324 11H26.8764V10.656L27.6764 10.488L27.5644 10.632V5.8L27.6764 5.952L26.8764 5.8V5.456L28.3804 5.416H29.2604ZM29.1564 10.512C29.4017 10.512 29.6364 10.472 29.8604 10.392C30.0844 10.312 30.287 10.184 30.4684 10.008C30.6497 9.82667 30.791 9.58667 30.8924 9.288C30.999 8.984 31.0524 8.61333 31.0524 8.176C31.0524 7.744 31.0017 7.384 30.9004 7.096C30.799 6.80267 30.663 6.57067 30.4924 6.4C30.3217 6.224 30.1297 6.09867 29.9164 6.024C29.703 5.944 29.479 5.904 29.2444 5.904H28.1004L28.2204 5.784V10.632L28.1004 10.512H29.1564ZM34.5239 6.704C35.1105 6.704 35.5692 6.888 35.8999 7.256C36.2359 7.624 36.4039 8.144 36.4039 8.816C36.4039 9.26933 36.3212 9.66667 36.1559 10.008C35.9959 10.344 35.7665 10.6053 35.4679 10.792C35.1692 10.9787 34.8092 11.072 34.3879 11.072C33.8119 11.072 33.3612 10.8933 33.0359 10.536C32.7105 10.1733 32.5479 9.65333 32.5479 8.976C32.5479 8.50667 32.6252 8.104 32.7799 7.768C32.9399 7.42667 33.1665 7.16533 33.4599 6.984C33.7585 6.79733 34.1132 6.704 34.5239 6.704ZM34.4919 7.176C34.0812 7.176 33.7665 7.33067 33.5479 7.64C33.3292 7.94933 33.2199 8.384 33.2199 8.944C33.2199 9.49333 33.3239 9.90667 33.5319 10.184C33.7399 10.4613 34.0385 10.6 34.4279 10.6C34.7105 10.6 34.9479 10.5307 35.1399 10.392C35.3372 10.248 35.4839 10.0453 35.5799 9.784C35.6812 9.52267 35.7319 9.21067 35.7319 8.848C35.7319 8.304 35.6225 7.89067 35.4039 7.608C35.1905 7.32 34.8865 7.176 34.4919 7.176ZM42.183 9.576H42.583V11H38.767V10.656L39.551 10.496L39.455 10.632V5.8L39.551 5.944L38.767 5.8V5.456L40.895 5.416V5.76L40.023 5.944L40.111 5.8V10.632L39.991 10.512H42.143L42.031 10.632L42.183 9.576ZM44.2321 10.592L44.1601 10.504L44.8561 10.656V11H42.9681V10.656L43.6641 10.504L43.5921 10.592V7.216L43.6561 7.288L42.9681 7.144V6.8L44.2321 6.752V10.592ZM43.8641 5.888C43.7414 5.888 43.6401 5.848 43.5601 5.768C43.4801 5.688 43.4401 5.57867 43.4401 5.44C43.4401 5.296 43.4801 5.18667 43.5601 5.112C43.6454 5.032 43.7494 4.992 43.8721 4.992C44.0001 4.992 44.1041 5.02933 44.1841 5.104C44.2641 5.17867 44.3041 5.29067 44.3041 5.44C44.3041 5.584 44.2614 5.696 44.1761 5.776C44.0907 5.85067 43.9867 5.888 43.8641 5.888ZM46.1589 7.8C46.1589 7.97067 46.2149 8.104 46.3269 8.2C46.4389 8.296 46.5829 8.376 46.7589 8.44C46.9349 8.49867 47.1215 8.55733 47.3189 8.616C47.5162 8.67467 47.7029 8.74667 47.8789 8.832C48.0549 8.91733 48.1989 9.03467 48.3109 9.184C48.4229 9.33333 48.4789 9.53067 48.4789 9.776C48.4789 10.0587 48.4015 10.296 48.2469 10.488C48.0922 10.68 47.8815 10.8267 47.6149 10.928C47.3535 11.024 47.0602 11.072 46.7349 11.072C46.5375 11.072 46.3349 11.056 46.1269 11.024C45.9189 10.992 45.7055 10.9467 45.4869 10.888L45.5429 9.816H45.9509L46.0309 10.6L45.9589 10.512C46.0815 10.544 46.2149 10.5707 46.3589 10.592C46.5029 10.6133 46.6362 10.624 46.7589 10.624C46.9509 10.624 47.1269 10.5973 47.2869 10.544C47.4522 10.4853 47.5855 10.4027 47.6869 10.296C47.7882 10.184 47.8389 10.0453 47.8389 9.88C47.8389 9.704 47.7829 9.56533 47.6709 9.464C47.5642 9.36267 47.4229 9.28 47.2469 9.216C47.0709 9.152 46.8842 9.09333 46.6869 9.04C46.4949 8.98133 46.3109 8.90933 46.1349 8.824C45.9589 8.73333 45.8149 8.616 45.7029 8.472C45.5909 8.328 45.5349 8.13067 45.5349 7.88C45.5349 7.608 45.6042 7.38667 45.7429 7.216C45.8869 7.04 46.0735 6.912 46.3029 6.832C46.5375 6.74667 46.7882 6.704 47.0549 6.704C47.2362 6.704 47.4362 6.72267 47.6549 6.76C47.8735 6.79733 48.0975 6.85333 48.3269 6.928L48.2869 7.832H47.8789L47.7589 7.168L47.8549 7.28C47.5775 7.2 47.3162 7.16 47.0709 7.16C46.8095 7.16 46.5909 7.216 46.4149 7.328C46.2442 7.43467 46.1589 7.592 46.1589 7.8ZM50.5872 11.072C50.3099 11.072 50.0912 10.9867 49.9312 10.816C49.7712 10.64 49.6912 10.376 49.6912 10.024V7.12L49.7952 7.224H48.9712V6.872L49.8032 6.752L49.6912 6.88V5.824L50.3312 5.72V6.88L50.2432 6.776H51.4992L51.4752 7.224H50.2432L50.3312 7.12V9.936C50.3312 10.16 50.3739 10.3227 50.4592 10.424C50.5499 10.5253 50.6752 10.576 50.8352 10.576C50.9312 10.576 51.0352 10.56 51.1472 10.528C51.2592 10.496 51.3792 10.4507 51.5072 10.392L51.6432 10.76C51.2645 10.968 50.9125 11.072 50.5872 11.072Z" fill="#021620"/>
<path d="M19.104 32.456L21.048 32.416V32.76L20.248 32.944L20.352 32.792V38H19.616L16.544 33.112L16.64 33.104V37.632L16.52 37.488L17.328 37.656V38H15.392V37.656L16.2 37.488L16.08 37.632V32.792L16.168 32.936L15.392 32.8V32.456L16.864 32.416L19.896 37.224L19.8 37.232V32.792L19.912 32.936L19.104 32.8V32.456ZM24.2319 38.072C23.7733 38.072 23.3599 37.968 22.9919 37.76C22.6293 37.552 22.3413 37.24 22.1279 36.824C21.9199 36.4027 21.8159 35.8827 21.8159 35.264C21.8159 34.7787 21.8799 34.3547 22.0079 33.992C22.1413 33.624 22.3253 33.3173 22.5599 33.072C22.7946 32.8267 23.0639 32.6453 23.3679 32.528C23.6773 32.4053 24.0079 32.344 24.3599 32.344C24.7013 32.344 25.0213 32.4027 25.3199 32.52C25.6186 32.632 25.8799 32.8053 26.1039 33.04C26.3279 33.2693 26.5013 33.5573 26.6239 33.904C26.7519 34.2507 26.8159 34.6533 26.8159 35.112C26.8159 35.7413 26.7013 36.2773 26.4719 36.72C26.2479 37.1573 25.9413 37.4933 25.5519 37.728C25.1626 37.9573 24.7226 38.072 24.2319 38.072ZM24.2719 37.552C24.6026 37.552 24.9066 37.4693 25.1839 37.304C25.4666 37.1333 25.6906 36.872 25.8559 36.52C26.0266 36.168 26.1119 35.712 26.1119 35.152C26.1119 34.6187 26.0319 34.184 25.8719 33.848C25.7173 33.512 25.5039 33.264 25.2319 33.104C24.9653 32.944 24.6639 32.864 24.3279 32.864C24.0026 32.864 23.7013 32.9467 23.4239 33.112C23.1519 33.272 22.9333 33.528 22.7679 33.88C22.6026 34.2267 22.5199 34.68 22.5199 35.24C22.5199 35.7733 22.5973 36.2107 22.7519 36.552C22.9119 36.8933 23.1226 37.1467 23.3839 37.312C23.6506 37.472 23.9466 37.552 24.2719 37.552ZM28.2863 38V37.656L29.2143 37.488L29.0863 37.664V32.784L29.2303 32.904H27.6863L27.8463 32.768L27.6863 33.784H27.2863V32.416H31.5343V33.784H31.1343L30.9743 32.784L31.1343 32.904H29.5903L29.7343 32.784V37.664L29.6143 37.488L30.5343 37.656V38H28.2863ZM31.9623 38V37.656L32.7543 37.488L32.6503 37.632V32.792L32.7783 32.944L31.9623 32.8V32.456L34.0023 32.416V32.76L33.1943 32.944L33.3063 32.792V35.032L33.1863 34.912H36.3223L36.2023 35.032V32.792L36.3223 32.944L35.5143 32.8V32.456L37.5543 32.416V32.76L36.7543 32.944L36.8583 32.792V37.632L36.7543 37.488L37.5543 37.656V38H35.5143V37.656L36.3063 37.488L36.2023 37.632V35.288L36.3223 35.4H33.1863L33.3063 35.288V37.632L33.2023 37.488L34.0023 37.656V38H31.9623ZM40.3695 32.76L39.5855 32.936L39.6735 32.824V37.608L39.5855 37.496L40.3695 37.656V38H38.3295V37.656L39.1055 37.496L39.0175 37.608V32.824L39.1215 32.944L38.3295 32.8V32.456L40.3695 32.416V32.76ZM44.854 32.456L46.798 32.416V32.76L45.998 32.944L46.102 32.792V38H45.366L42.294 33.112L42.39 33.104V37.632L42.27 37.488L43.078 37.656V38H41.142V37.656L41.95 37.488L41.83 37.632V32.792L41.918 32.936L41.142 32.8V32.456L42.614 32.416L45.646 37.224L45.55 37.232V32.792L45.662 32.936L44.854 32.8V32.456ZM50.1259 38.064C49.6086 38.064 49.1579 37.96 48.7739 37.752C48.3899 37.5387 48.0913 37.224 47.8779 36.808C47.6699 36.3867 47.5659 35.872 47.5659 35.264C47.5659 34.6453 47.6726 34.12 47.8859 33.688C48.0993 33.2507 48.4033 32.9173 48.7979 32.688C49.1979 32.4587 49.6699 32.344 50.2139 32.344C50.5019 32.344 50.8033 32.3787 51.1179 32.448C51.4379 32.512 51.7606 32.6133 52.0859 32.752L52.0299 34H51.6299L51.4939 33.016L51.5979 33.128C51.3739 33.048 51.1419 32.984 50.9019 32.936C50.6619 32.888 50.4353 32.864 50.2219 32.864C49.8219 32.864 49.4753 32.9573 49.1819 33.144C48.8886 33.3307 48.6619 33.6027 48.5019 33.96C48.3473 34.312 48.2699 34.7413 48.2699 35.248C48.2699 35.984 48.4406 36.552 48.7819 36.952C49.1233 37.3467 49.5979 37.544 50.2059 37.544C50.4086 37.544 50.6193 37.5227 50.8379 37.48C51.0619 37.432 51.2939 37.3627 51.5339 37.272L51.4459 37.424V35.696L51.5659 35.816L50.7499 35.712V35.352L52.7259 35.312V35.672L51.9739 35.824L52.0619 35.696V37.64C51.7153 37.784 51.3793 37.8907 51.0539 37.96C50.7286 38.0293 50.4193 38.064 50.1259 38.064Z" fill="#F5F5F5"/>
<circle cx="11.5" cy="7.5" r="0.5" fill="#021620"/>
<circle cx="9" cy="11" r="1" fill="#021620"/>
<circle cx="53.5" cy="8.5" r="0.5" fill="#021620"/>
<circle cx="56.5" cy="6.5" r="0.5" fill="#021620"/>
<circle cx="57" cy="10" r="1" fill="#021620"/>
<path d="M13 34.85C12.9172 34.85 12.85 34.9172 12.85 35C12.85 35.0828 12.9172 35.15 13 35.15V34.85ZM13 35.15H55V34.85H13V35.15Z" fill="#F5F5F5"/>
</svg>
