<svg width="66" height="81" viewBox="0 0 66 81" fill="none" xmlns="http://www.w3.org/2000/svg">
<path d="M1.75827 77.7049C-0.0945877 48.9314 0.263794 32.427 1.76352 3.05981C25.5517 -0.444734 39.2842 -0.262065 63.8053 3.06444C65.206 32.6792 65.6309 49.2756 63.812 77.7022C39.636 81.3508 25.9283 81.5126 1.75827 77.7049Z" stroke="#021620"/>
<line x1="10" y1="23.5957" x2="54" y2="23.5957" stroke="#021620" stroke-width="0.5"/>
<line x1="10" y1="31.5442" x2="54" y2="31.5442" stroke="#021620" stroke-width="0.5"/>
<line x1="10" y1="39.4927" x2="54" y2="39.4927" stroke="#021620" stroke-width="0.5"/>
<line x1="10" y1="47.4414" x2="54" y2="47.4414" stroke="#021620" stroke-width="0.5"/>
<line x1="10" y1="55.75" x2="54" y2="55.75" stroke="#021620" stroke-width="0.5"/>
<line x1="10" y1="63.75" x2="54" y2="63.75" stroke="#021620" stroke-width="0.5"/>
<line x1="10" y1="71.75" x2="54" y2="71.75" stroke="#021620" stroke-width="0.5"/>
<path d="M26.104 8.456L28.048 8.416V8.76L27.248 8.944L27.352 8.792V14H26.616L23.544 9.112L23.64 9.104V13.632L23.52 13.488L24.328 13.656V14H22.392V13.656L23.2 13.488L23.08 13.632V8.792L23.168 8.936L22.392 8.8V8.456L23.864 8.416L26.896 13.224L26.8 13.232V8.792L26.912 8.936L26.104 8.8V8.456ZM30.5551 9.704C31.1418 9.704 31.6005 9.888 31.9311 10.256C32.2671 10.624 32.4351 11.144 32.4351 11.816C32.4351 12.2693 32.3525 12.6667 32.1871 13.008C32.0271 13.344 31.7978 13.6053 31.4991 13.792C31.2005 13.9787 30.8405 14.072 30.4191 14.072C29.8431 14.072 29.3925 13.8933 29.0671 13.536C28.7418 13.1733 28.5791 12.6533 28.5791 11.976C28.5791 11.5067 28.6565 11.104 28.8111 10.768C28.9711 10.4267 29.1978 10.1653 29.4911 9.984C29.7898 9.79733 30.1445 9.704 30.5551 9.704ZM30.5231 10.176C30.1125 10.176 29.7978 10.3307 29.5791 10.64C29.3605 10.9493 29.2511 11.384 29.2511 11.944C29.2511 12.4933 29.3551 12.9067 29.5631 13.184C29.7711 13.4613 30.0698 13.6 30.4591 13.6C30.7418 13.6 30.9791 13.5307 31.1711 13.392C31.3685 13.248 31.5151 13.0453 31.6111 12.784C31.7125 12.5227 31.7631 12.2107 31.7631 11.848C31.7631 11.304 31.6538 10.8907 31.4351 10.608C31.2218 10.32 30.9178 10.176 30.5231 10.176ZM34.5247 14.072C34.2474 14.072 34.0287 13.9867 33.8687 13.816C33.7087 13.64 33.6287 13.376 33.6287 13.024V10.12L33.7327 10.224H32.9087V9.872L33.7407 9.752L33.6287 9.88V8.824L34.2687 8.72V9.88L34.1807 9.776H35.4367L35.4127 10.224H34.1807L34.2687 10.12V12.936C34.2687 13.16 34.3114 13.3227 34.3967 13.424C34.4874 13.5253 34.6127 13.576 34.7727 13.576C34.8687 13.576 34.9727 13.56 35.0847 13.528C35.1967 13.496 35.3167 13.4507 35.4447 13.392L35.5807 13.76C35.202 13.968 34.85 14.072 34.5247 14.072ZM37.8096 14.072C37.4522 14.072 37.1349 13.992 36.8576 13.832C36.5856 13.6667 36.3722 13.4267 36.2176 13.112C36.0629 12.7973 35.9856 12.4133 35.9856 11.96C35.9856 11.496 36.0656 11.096 36.2256 10.76C36.3856 10.424 36.6122 10.1653 36.9056 9.984C37.1989 9.79733 37.5429 9.704 37.9376 9.704C38.3109 9.704 38.6176 9.784 38.8576 9.944C39.1029 10.0987 39.2842 10.3147 39.4016 10.592C39.5242 10.8693 39.5856 11.1867 39.5856 11.544C39.5856 11.6027 39.5829 11.6613 39.5776 11.72C39.5722 11.7787 39.5642 11.8507 39.5536 11.936H36.4736V11.48H38.9936L38.9216 11.528C38.9269 11.288 38.8976 11.0667 38.8336 10.864C38.7696 10.6613 38.6602 10.4987 38.5056 10.376C38.3509 10.2533 38.1456 10.192 37.8896 10.192C37.6176 10.192 37.3882 10.264 37.2016 10.408C37.0149 10.552 36.8762 10.7493 36.7856 11C36.6949 11.2507 36.6496 11.5413 36.6496 11.872C36.6496 12.224 36.7002 12.528 36.8016 12.784C36.9029 13.0347 37.0496 13.2293 37.2416 13.368C37.4389 13.5067 37.6789 13.576 37.9616 13.576C38.1589 13.576 38.3749 13.5387 38.6096 13.464C38.8442 13.384 39.0869 13.264 39.3376 13.104L39.5696 13.464C39.2709 13.6667 38.9722 13.8187 38.6736 13.92C38.3749 14.0213 38.0869 14.072 37.8096 14.072ZM41.0886 10.8C41.0886 10.9707 41.1446 11.104 41.2566 11.2C41.3686 11.296 41.5126 11.376 41.6886 11.44C41.8646 11.4987 42.0512 11.5573 42.2486 11.616C42.4459 11.6747 42.6326 11.7467 42.8086 11.832C42.9846 11.9173 43.1286 12.0347 43.2406 12.184C43.3526 12.3333 43.4086 12.5307 43.4086 12.776C43.4086 13.0587 43.3312 13.296 43.1766 13.488C43.0219 13.68 42.8112 13.8267 42.5446 13.928C42.2832 14.024 41.9899 14.072 41.6646 14.072C41.4672 14.072 41.2646 14.056 41.0566 14.024C40.8486 13.992 40.6352 13.9467 40.4166 13.888L40.4726 12.816H40.8806L40.9606 13.6L40.8886 13.512C41.0112 13.544 41.1446 13.5707 41.2886 13.592C41.4326 13.6133 41.5659 13.624 41.6886 13.624C41.8806 13.624 42.0566 13.5973 42.2166 13.544C42.3819 13.4853 42.5152 13.4027 42.6166 13.296C42.7179 13.184 42.7686 13.0453 42.7686 12.88C42.7686 12.704 42.7126 12.5653 42.6006 12.464C42.4939 12.3627 42.3526 12.28 42.1766 12.216C42.0006 12.152 41.8139 12.0933 41.6166 12.04C41.4246 11.9813 41.2406 11.9093 41.0646 11.824C40.8886 11.7333 40.7446 11.616 40.6326 11.472C40.5206 11.328 40.4646 11.1307 40.4646 10.88C40.4646 10.608 40.5339 10.3867 40.6726 10.216C40.8166 10.04 41.0032 9.912 41.2326 9.832C41.4672 9.74667 41.7179 9.704 41.9846 9.704C42.1659 9.704 42.3659 9.72267 42.5846 9.76C42.8032 9.79733 43.0272 9.85333 43.2566 9.928L43.2166 10.832H42.8086L42.6886 10.168L42.7846 10.28C42.5072 10.2 42.2459 10.16 42.0006 10.16C41.7392 10.16 41.5206 10.216 41.3446 10.328C41.1739 10.4347 41.0886 10.592 41.0886 10.8Z" fill="#021620"/>
<circle cx="12" cy="20" r="1" fill="#021620"/>
<circle cx="12" cy="28" r="1" fill="#021620"/>
<circle cx="12" cy="36" r="1" fill="#021620"/>
<circle cx="12" cy="44" r="1" fill="#021620"/>
<circle cx="12" cy="52" r="1" fill="#021620"/>
<circle cx="12" cy="60" r="1" fill="#021620"/>
<circle cx="12" cy="68" r="1" fill="#021620"/>
<path d="M16.0111 10C16.7512 10 17.4044 10.0863 18.0333 10.5056" stroke="#021620" stroke-width="0.6" stroke-linecap="round"/>
<path d="M51.0333 10C49.933 10 48.9147 9.99525 48.1011 10.8089" stroke="#021620" stroke-width="0.6" stroke-linecap="round"/>
<path d="M48 13.2355C48.6283 13.2355 50.6067 12.9889 50.9322 13.64" stroke="#021620" stroke-width="0.6" stroke-linecap="round"/>
<path d="M15 13.7411C15.6037 13.7411 16.1381 13.249 16.6964 13.0557C17.1957 12.8829 17.6032 12.8311 18.1344 12.8311" stroke="#021620" stroke-width="0.6" stroke-linecap="round"/>
</svg>
