<svg width="66" height="81" viewBox="0 0 66 81" fill="none" xmlns="http://www.w3.org/2000/svg">
<path d="M1.75827 77.7049C-0.0945877 48.9314 0.263794 32.427 1.76352 3.05981C25.5517 -0.444734 39.2842 -0.262065 63.8053 3.06444C65.206 32.6792 65.6309 49.2756 63.812 77.7022C39.636 81.3508 25.9283 81.5126 1.75827 77.7049Z" stroke="#F5F5F5"/>
<line x1="10" y1="23.5957" x2="54" y2="23.5957" stroke="#F5F5F5" stroke-width="0.5"/>
<line x1="10" y1="31.5442" x2="54" y2="31.5442" stroke="#F5F5F5" stroke-width="0.5"/>
<line x1="10" y1="39.4927" x2="54" y2="39.4927" stroke="#F5F5F5" stroke-width="0.5"/>
<line x1="10" y1="47.4414" x2="54" y2="47.4414" stroke="#F5F5F5" stroke-width="0.5"/>
<line x1="10" y1="55.75" x2="54" y2="55.75" stroke="#F5F5F5" stroke-width="0.5"/>
<line x1="10" y1="63.75" x2="54" y2="63.75" stroke="#F5F5F5" stroke-width="0.5"/>
<line x1="10" y1="71.75" x2="54" y2="71.75" stroke="#F5F5F5" stroke-width="0.5"/>
<path d="M16.0111 10C16.7512 10 17.4044 10.0863 18.0333 10.5056" stroke="#F5F5F5" stroke-width="0.6" stroke-linecap="round"/>
<path d="M51.0333 10C49.933 10 48.9147 9.99525 48.1011 10.8089" stroke="#F5F5F5" stroke-width="0.6" stroke-linecap="round"/>
<path d="M48 13.2355C48.6283 13.2355 50.6067 12.9889 50.9322 13.64" stroke="#F5F5F5" stroke-width="0.6" stroke-linecap="round"/>
<path d="M15 13.7411C15.6037 13.7411 16.1381 13.249 16.6964 13.0557C17.1957 12.8829 17.6032 12.8311 18.1344 12.8311" stroke="#F5F5F5" stroke-width="0.6" stroke-linecap="round"/>
<path d="M26.104 9.456L28.048 9.416V9.76L27.248 9.944L27.352 9.792V15H26.616L23.544 10.112L23.64 10.104V14.632L23.52 14.488L24.328 14.656V15H22.392V14.656L23.2 14.488L23.08 14.632V9.792L23.168 9.936L22.392 9.8V9.456L23.864 9.416L26.896 14.224L26.8 14.232V9.792L26.912 9.936L26.104 9.8V9.456ZM30.5551 10.704C31.1418 10.704 31.6005 10.888 31.9311 11.256C32.2671 11.624 32.4351 12.144 32.4351 12.816C32.4351 13.2693 32.3525 13.6667 32.1871 14.008C32.0271 14.344 31.7978 14.6053 31.4991 14.792C31.2005 14.9787 30.8405 15.072 30.4191 15.072C29.8431 15.072 29.3925 14.8933 29.0671 14.536C28.7418 14.1733 28.5791 13.6533 28.5791 12.976C28.5791 12.5067 28.6565 12.104 28.8111 11.768C28.9711 11.4267 29.1978 11.1653 29.4911 10.984C29.7898 10.7973 30.1445 10.704 30.5551 10.704ZM30.5231 11.176C30.1125 11.176 29.7978 11.3307 29.5791 11.64C29.3605 11.9493 29.2511 12.384 29.2511 12.944C29.2511 13.4933 29.3551 13.9067 29.5631 14.184C29.7711 14.4613 30.0698 14.6 30.4591 14.6C30.7418 14.6 30.9791 14.5307 31.1711 14.392C31.3685 14.248 31.5151 14.0453 31.6111 13.784C31.7125 13.5227 31.7631 13.2107 31.7631 12.848C31.7631 12.304 31.6538 11.8907 31.4351 11.608C31.2218 11.32 30.9178 11.176 30.5231 11.176ZM34.5247 15.072C34.2474 15.072 34.0287 14.9867 33.8687 14.816C33.7087 14.64 33.6287 14.376 33.6287 14.024V11.12L33.7327 11.224H32.9087V10.872L33.7407 10.752L33.6287 10.88V9.824L34.2687 9.72V10.88L34.1807 10.776H35.4367L35.4127 11.224H34.1807L34.2687 11.12V13.936C34.2687 14.16 34.3114 14.3227 34.3967 14.424C34.4874 14.5253 34.6127 14.576 34.7727 14.576C34.8687 14.576 34.9727 14.56 35.0847 14.528C35.1967 14.496 35.3167 14.4507 35.4447 14.392L35.5807 14.76C35.202 14.968 34.85 15.072 34.5247 15.072ZM37.8096 15.072C37.4522 15.072 37.1349 14.992 36.8576 14.832C36.5856 14.6667 36.3722 14.4267 36.2176 14.112C36.0629 13.7973 35.9856 13.4133 35.9856 12.96C35.9856 12.496 36.0656 12.096 36.2256 11.76C36.3856 11.424 36.6122 11.1653 36.9056 10.984C37.1989 10.7973 37.5429 10.704 37.9376 10.704C38.3109 10.704 38.6176 10.784 38.8576 10.944C39.1029 11.0987 39.2842 11.3147 39.4016 11.592C39.5242 11.8693 39.5856 12.1867 39.5856 12.544C39.5856 12.6027 39.5829 12.6613 39.5776 12.72C39.5722 12.7787 39.5642 12.8507 39.5536 12.936H36.4736V12.48H38.9936L38.9216 12.528C38.9269 12.288 38.8976 12.0667 38.8336 11.864C38.7696 11.6613 38.6602 11.4987 38.5056 11.376C38.3509 11.2533 38.1456 11.192 37.8896 11.192C37.6176 11.192 37.3882 11.264 37.2016 11.408C37.0149 11.552 36.8762 11.7493 36.7856 12C36.6949 12.2507 36.6496 12.5413 36.6496 12.872C36.6496 13.224 36.7002 13.528 36.8016 13.784C36.9029 14.0347 37.0496 14.2293 37.2416 14.368C37.4389 14.5067 37.6789 14.576 37.9616 14.576C38.1589 14.576 38.3749 14.5387 38.6096 14.464C38.8442 14.384 39.0869 14.264 39.3376 14.104L39.5696 14.464C39.2709 14.6667 38.9722 14.8187 38.6736 14.92C38.3749 15.0213 38.0869 15.072 37.8096 15.072ZM41.0886 11.8C41.0886 11.9707 41.1446 12.104 41.2566 12.2C41.3686 12.296 41.5126 12.376 41.6886 12.44C41.8646 12.4987 42.0512 12.5573 42.2486 12.616C42.4459 12.6747 42.6326 12.7467 42.8086 12.832C42.9846 12.9173 43.1286 13.0347 43.2406 13.184C43.3526 13.3333 43.4086 13.5307 43.4086 13.776C43.4086 14.0587 43.3312 14.296 43.1766 14.488C43.0219 14.68 42.8112 14.8267 42.5446 14.928C42.2832 15.024 41.9899 15.072 41.6646 15.072C41.4672 15.072 41.2646 15.056 41.0566 15.024C40.8486 14.992 40.6352 14.9467 40.4166 14.888L40.4726 13.816H40.8806L40.9606 14.6L40.8886 14.512C41.0112 14.544 41.1446 14.5707 41.2886 14.592C41.4326 14.6133 41.5659 14.624 41.6886 14.624C41.8806 14.624 42.0566 14.5973 42.2166 14.544C42.3819 14.4853 42.5152 14.4027 42.6166 14.296C42.7179 14.184 42.7686 14.0453 42.7686 13.88C42.7686 13.704 42.7126 13.5653 42.6006 13.464C42.4939 13.3627 42.3526 13.28 42.1766 13.216C42.0006 13.152 41.8139 13.0933 41.6166 13.04C41.4246 12.9813 41.2406 12.9093 41.0646 12.824C40.8886 12.7333 40.7446 12.616 40.6326 12.472C40.5206 12.328 40.4646 12.1307 40.4646 11.88C40.4646 11.608 40.5339 11.3867 40.6726 11.216C40.8166 11.04 41.0032 10.912 41.2326 10.832C41.4672 10.7467 41.7179 10.704 41.9846 10.704C42.1659 10.704 42.3659 10.7227 42.5846 10.76C42.8032 10.7973 43.0272 10.8533 43.2566 10.928L43.2166 11.832H42.8086L42.6886 11.168L42.7846 11.28C42.5072 11.2 42.2459 11.16 42.0006 11.16C41.7392 11.16 41.5206 11.216 41.3446 11.328C41.1739 11.4347 41.0886 11.592 41.0886 11.8Z" fill="#F5F5F5"/>
</svg>
