<svg width="88" height="72" viewBox="0 0 88 72" fill="none" xmlns="http://www.w3.org/2000/svg">
<rect x="0.5" y="60.6477" width="87" height="10.541" rx="1.5" stroke="#F5F5F5" stroke-linejoin="round"/>
<mask id="path-2-inside-1_206_414" fill="white">
<path d="M10 44C10 41.7909 11.7909 40 14 40H72C74.2091 40 76 41.7909 76 44V61H10V44Z"/>
</mask>
<path d="M9 44C9 41.2386 11.2386 39 14 39H72C74.7614 39 77 41.2386 77 44H75C75 42.3431 73.6569 41 72 41H14C12.3431 41 11 42.3431 11 44H9ZM76 61H10H76ZM9 61V44C9 41.2386 11.2386 39 14 39V41C12.3431 41 11 42.3431 11 44V61H9ZM72 39C74.7614 39 77 41.2386 77 44V61H75V44C75 42.3431 73.6569 41 72 41V39Z" fill="#F5F5F5" mask="url(#path-2-inside-1_206_414)"/>
<mask id="path-4-inside-2_206_414" fill="white">
<path d="M20.1968 22.3115C20.1968 20.1024 21.9876 18.3115 24.1968 18.3115H62.3607C64.5699 18.3115 66.3607 20.1024 66.3607 22.3115V39.9509H20.1968V22.3115Z"/>
</mask>
<path d="M19.1968 22.3115C19.1968 19.5501 21.4354 17.3115 24.1968 17.3115H62.3607C65.1221 17.3115 67.3607 19.5501 67.3607 22.3115H65.3607C65.3607 20.6547 64.0176 19.3115 62.3607 19.3115H24.1968C22.5399 19.3115 21.1968 20.6547 21.1968 22.3115H19.1968ZM66.3607 39.9509H20.1968H66.3607ZM19.1968 39.9509V22.3115C19.1968 19.5501 21.4354 17.3115 24.1968 17.3115V19.3115C22.5399 19.3115 21.1968 20.6547 21.1968 22.3115V39.9509H19.1968ZM62.3607 17.3115C65.1221 17.3115 67.3607 19.5501 67.3607 22.3115V39.9509H65.3607V22.3115C65.3607 20.6547 64.0176 19.3115 62.3607 19.3115V17.3115Z" fill="#F5F5F5" mask="url(#path-4-inside-2_206_414)"/>
<line x1="32.2378" y1="12.541" x2="32.2378" y2="18.3115" stroke="#F5F5F5"/>
<line x1="53.8771" y1="12.541" x2="53.8771" y2="18.3115" stroke="#F5F5F5"/>
<line x1="43.7787" y1="8.21313" x2="43.7787" y2="18.3115" stroke="#F5F5F5"/>
<path d="M11 47.657C13.6095 47.657 15.9778 41.2745 19 47.657C22.0222 54.0396 25.2222 48.3618 27 46.0415C28.7778 43.7212 33.4 42.6786 35 46.8491C36.6 51.0196 40.8667 52.2677 43 47.657C45.1333 43.0464 49.0444 42.5226 51 47.657C52.9556 52.7915 58.6444 51.3818 59 47.657C59.3556 43.9323 65.7556 42.1605 67 47.657C68.2444 53.1536 74.6229 47.657 75 47.657" stroke="#F5F5F5"/>
<path d="M21 26.8654C23.0455 27.0207 24.5 32.3362 26.625 26.8654C28.75 21.3946 31 26.2613 32.25 28.2502C33.5 30.239 36.75 31.1327 37.875 27.5579C39 23.9832 42 22.9134 43.5 26.8654C45 30.8174 47.75 31.2664 49.125 26.8654C50.5 22.4644 54.5 23.6728 54.75 26.8654C55 30.058 59.5 31.5767 60.375 26.8654C61.25 22.154 65.7349 26.8654 66 26.8654" stroke="#F5F5F5"/>
<circle cx="31.0164" cy="49.3278" r="0.721312" fill="#F5F5F5"/>
<circle cx="39.672" cy="46.4425" r="0.721312" fill="#F5F5F5"/>
<circle cx="46.8853" cy="49.3278" r="0.721312" fill="#F5F5F5"/>
<circle cx="55.541" cy="47.8854" r="0.721312" fill="#F5F5F5"/>
<circle cx="69.9672" cy="46.4425" r="0.721312" fill="#F5F5F5"/>
<circle cx="62.7541" cy="49.3278" r="0.721312" fill="#F5F5F5"/>
<circle cx="22.3606" cy="46.4425" r="0.721312" fill="#F5F5F5"/>
<circle cx="16.5901" cy="49.3278" r="0.721312" fill="#F5F5F5"/>
<path d="M32.5762 6.3982C32.5762 6.39828 32.575 6.39917 32.5726 6.40065C32.5751 6.39887 32.5763 6.39813 32.5762 6.3982ZM32.4589 13.0409C32.9479 13.0409 33.5947 12.8166 34.1193 12.407C34.659 11.9855 35.123 11.3237 35.1229 10.4287C35.1229 9.96303 34.9483 9.47527 34.7353 9.03252C34.5178 8.58059 34.2327 8.12098 33.9599 7.70205C33.8611 7.5502 33.7653 7.40579 33.674 7.26823C33.5057 7.01437 33.3527 6.78379 33.2243 6.57262C33.1271 6.41275 33.055 6.28146 33.0083 6.17731C32.9659 6.0825 32.9598 6.04305 32.9591 6.04315C32.9589 6.04317 32.959 6.04519 32.959 6.04902C32.959 5.97152 32.95 5.77274 32.7941 5.61149C32.5955 5.40605 32.3439 5.43259 32.2205 5.47013C32.1039 5.50559 32.0107 5.57054 31.9515 5.61674C31.8851 5.66864 31.8203 5.7301 31.7591 5.79417C31.5194 6.04537 31.2266 6.45276 30.9462 6.92919C30.3916 7.87125 29.7951 9.2369 29.795 10.4287C29.7949 11.6119 30.2107 12.3317 30.8537 12.7082C31.4228 13.0415 32.0799 13.0411 32.4303 13.0409C32.4401 13.0409 32.4496 13.0409 32.4589 13.0409Z" fill="#F5F5F5" stroke="#F5F5F5"/>
<path d="M44.1173 1.4546C44.1172 1.45467 44.116 1.45556 44.1136 1.45704C44.1161 1.45527 44.1173 1.45453 44.1173 1.4546ZM43.9999 8.09726C44.4889 8.09732 45.1357 7.87305 45.6603 7.46339C46.2 7.04194 46.664 6.3801 46.6639 5.48505C46.6639 5.01942 46.4894 4.53167 46.2763 4.08892C46.0588 3.63699 45.7737 3.17738 45.501 2.75845C45.4021 2.60659 45.3063 2.46219 45.2151 2.32462C45.0467 2.07077 44.8938 1.84019 44.7653 1.62901C44.6681 1.46914 44.596 1.33786 44.5493 1.23371C44.5069 1.1389 44.5009 1.09944 44.5001 1.09955C44.4999 1.09957 44.5 1.10158 44.5 1.10541C44.5 1.02792 44.491 0.82914 44.3351 0.667889C44.1365 0.462449 43.8849 0.48899 43.7615 0.526531C43.6449 0.56199 43.5517 0.626941 43.4925 0.673139C43.4261 0.72504 43.3613 0.786493 43.3001 0.850569C43.0604 1.10177 42.7676 1.50916 42.4872 1.98559C41.9326 2.92765 41.3362 4.2933 41.3361 5.48507C41.336 6.66825 41.7517 7.38805 42.3947 7.76463C42.9639 8.09794 43.621 8.0975 43.9713 8.09727C43.9811 8.09726 43.9906 8.09726 43.9999 8.09726Z" fill="#F5F5F5" stroke="#F5F5F5"/>
<path d="M54.2156 5.78224C54.2156 5.78231 54.2144 5.7832 54.212 5.78468C54.2145 5.7829 54.2157 5.78216 54.2156 5.78224ZM54.0983 12.4249C54.5873 12.425 55.2341 12.2007 55.7587 11.791C56.2984 11.3696 56.7624 10.7077 56.7623 9.81269C56.7623 9.34706 56.5877 8.85931 56.3747 8.41655C56.1572 7.96463 55.8721 7.50502 55.5993 7.08608C55.5005 6.93423 55.4047 6.78983 55.3135 6.65226C55.1451 6.3984 54.9921 6.16782 54.8637 5.95665C54.7665 5.79678 54.6944 5.6655 54.6477 5.56134C54.6053 5.46654 54.5992 5.42708 54.5985 5.42718C54.5983 5.4272 54.5984 5.42922 54.5984 5.43305C54.5984 5.35555 54.5894 5.15678 54.4335 4.99553C54.2349 4.79009 53.9833 4.81663 53.8599 4.85417C53.7433 4.88963 53.6501 4.95458 53.5909 5.00078C53.5245 5.05268 53.4597 5.11413 53.3985 5.17821C53.1588 5.4294 52.866 5.8368 52.5856 6.31323C52.031 7.25528 51.4345 8.62093 51.4344 9.81271C51.4343 10.9959 51.8501 11.7157 52.4931 12.0923C53.0622 12.4256 53.7193 12.4251 54.0697 12.4249C54.0795 12.4249 54.089 12.4249 54.0983 12.4249Z" fill="#F5F5F5" stroke="#F5F5F5"/>
</svg>
