<svg width="393" height="852" viewBox="0 0 393 852" fill="none" xmlns="http://www.w3.org/2000/svg">
<g clip-path="url(#clip0_187_66)">
<rect width="393" height="852" fill="#021620"/>
<g clip-path="url(#clip1_187_66)">
<rect width="393" height="852" fill="#021620"/>
<path d="M0 776.582C158.83 776.582 371.979 594.206 406.709 694.764V988.211H0V776.582Z" fill="#F4A460" fill-opacity="0.3"/>
<path d="M406.709 701.106C247.879 701.106 34.7302 570.282 -7.1466e-05 642.415V852.914H406.709V701.106Z" fill="#F4A460" fill-opacity="0.3"/>
<path d="M406.709 623.995C205.639 660.104 4.08089 417.584 -35.6443 526.636V852.536L406.709 852.535V623.995Z" fill="#F4A460" fill-opacity="0.3"/>
<path d="M0 553.069C153.476 553.069 90.4814 493.191 393 546.669V852.914H0V553.069Z" fill="#F4A460" fill-opacity="0.3"/>
<ellipse cx="113.481" cy="223.359" rx="113.481" ry="223.359" transform="matrix(0.201259 0.979538 -0.965748 0.259483 370.416 -22)" fill="url(#paint0_radial_187_66)" fill-opacity="0.2"/>
<ellipse cx="47.6853" cy="216.525" rx="1.33829" ry="1.26197" transform="rotate(74.8203 47.6853 216.525)" fill="white"/>
<ellipse cx="137.167" cy="205.622" rx="1.33829" ry="1.26197" transform="rotate(74.8203 137.167 205.622)" fill="white"/>
<ellipse cx="60.8988" cy="154.791" rx="1.33829" ry="1.26197" transform="rotate(74.8203 60.8988 154.791)" fill="white"/>
<ellipse cx="84.6665" cy="161.656" rx="0.892191" ry="0.841317" transform="rotate(74.8203 84.6665 161.656)" fill="white"/>
<ellipse cx="329.319" cy="162.503" rx="0.892191" ry="0.841317" transform="rotate(149.826 329.319 162.503)" fill="#D9D9D9"/>
<ellipse cx="23.4586" cy="142.543" rx="2.09787" ry="1.97824" transform="rotate(74.8203 23.4586 142.543)" fill="white"/>
<ellipse cx="230.129" cy="51.7868" rx="4.37657" ry="4.12701" transform="rotate(74.8203 230.129 51.7868)" fill="#D9D9D9"/>
<ellipse cx="164.796" cy="211.068" rx="3.12267" ry="2.94461" transform="rotate(74.8203 164.796 211.068)" fill="white"/>
<ellipse cx="27.4567" cy="200.037" rx="2.34824" ry="2.21434" transform="rotate(74.8203 27.4567 200.037)" fill="white"/>
<ellipse cx="97.6481" cy="185.405" rx="2.23048" ry="2.10329" transform="rotate(74.8203 97.6481 185.405)" fill="white"/>
<ellipse cx="105.623" cy="217.878" rx="2.23048" ry="2.10329" transform="rotate(74.8203 105.623 217.878)" fill="white"/>
<ellipse cx="54.6113" cy="129.597" rx="2.23048" ry="2.10329" transform="rotate(74.8203 54.6113 129.597)" fill="white"/>
<ellipse cx="1.27346" cy="1.32736" rx="1.27346" ry="1.32736" transform="matrix(0.112079 0.993699 -0.988186 0.153259 246.706 224.196)" fill="white"/>
<ellipse cx="1.27346" cy="1.32736" rx="1.27346" ry="1.32736" transform="matrix(0.112079 0.993699 -0.988186 0.153259 307.103 231.139)" fill="white"/>
<ellipse cx="1.27346" cy="1.32736" rx="1.27346" ry="1.32736" transform="matrix(0.112079 0.993699 -0.988186 0.153259 343.807 193.686)" fill="white"/>
<ellipse cx="0.849418" cy="0.884983" rx="0.849418" ry="0.884983" transform="matrix(0.112079 0.993699 -0.988186 0.153259 293.732 175.701)" fill="white"/>
<ellipse cx="0.849418" cy="0.884983" rx="0.849418" ry="0.884983" transform="matrix(0.112079 0.993699 -0.988186 0.153259 213.93 201.811)" fill="white"/>
<ellipse cx="0.849418" cy="0.884983" rx="0.849418" ry="0.884983" transform="matrix(0.112079 0.993699 -0.988186 0.153259 327.681 153.268)" fill="white"/>
<ellipse cx="2.4554" cy="2.55934" rx="2.4554" ry="2.55934" transform="matrix(0.112079 0.993699 -0.988186 0.153259 273.583 194.276)" fill="white"/>
<ellipse cx="2.97627" cy="3.10225" rx="2.97627" ry="3.10225" transform="matrix(0.112079 0.993699 -0.988186 0.153259 372.9 49.2293)" fill="white"/>
<ellipse cx="2.9714" cy="3.09718" rx="2.9714" ry="3.09718" transform="matrix(0.112079 0.993699 -0.988186 0.153259 260.711 174.813)" fill="white"/>
<ellipse cx="2.12243" cy="2.21227" rx="2.12243" ry="2.21227" transform="matrix(0.112079 0.993699 -0.988186 0.153259 304.266 198.102)" fill="white"/>
<ellipse cx="2.12243" cy="2.21227" rx="2.12243" ry="2.21227" transform="matrix(0.112079 0.993699 -0.988186 0.153259 273.284 238.958)" fill="white"/>
<ellipse cx="2.12243" cy="2.21227" rx="2.12243" ry="2.21227" transform="matrix(0.112079 0.993699 -0.988186 0.153259 269.337 140.857)" fill="white"/>
<ellipse cx="1.31037" cy="1.29171" rx="1.31037" ry="1.29171" transform="matrix(0.359124 -0.93329 0.911372 0.411583 170.988 125.493)" fill="#D9D9D9"/>
<ellipse cx="1.31037" cy="1.29171" rx="1.31037" ry="1.29171" transform="matrix(0.359124 -0.93329 0.911372 0.411583 124.383 86.2679)" fill="white"/>
<ellipse cx="1.31037" cy="1.29171" rx="1.31037" ry="1.29171" transform="matrix(0.359124 -0.93329 0.911372 0.411583 66.6899 84.1299)" fill="white"/>
<ellipse cx="0.873582" cy="0.861139" rx="0.873582" ry="0.861139" transform="matrix(0.994426 0.105434 -0.161777 0.986827 333.216 147.339)" fill="#D9D9D9"/>
<ellipse cx="0.873582" cy="0.861139" rx="0.873582" ry="0.861139" transform="matrix(0.359124 -0.93329 0.911372 0.411583 61.2062 129.492)" fill="white"/>
<ellipse cx="5.24034" cy="5.16491" rx="5.24034" ry="5.16491" transform="matrix(0.359124 -0.93329 0.911372 0.411583 124.904 121.901)" fill="white"/>
<ellipse cx="3.05687" cy="3.01286" rx="3.05687" ry="3.01286" transform="matrix(0.359124 -0.93329 0.911372 0.411583 103.042 65.1488)" fill="white"/>
<ellipse cx="3.05687" cy="3.01286" rx="3.05687" ry="3.01286" transform="matrix(0.359124 -0.93329 0.911372 0.411583 126.476 146.531)" fill="white"/>
<ellipse cx="2.18348" cy="2.15205" rx="2.18348" ry="2.15205" transform="matrix(0.359124 -0.93329 0.911372 0.411583 101.366 101.704)" fill="white"/>
<ellipse cx="2.18348" cy="2.15205" rx="2.18348" ry="2.15205" transform="matrix(0.359124 -0.93329 0.911372 0.411583 155.921 97.6401)" fill="white"/>
<ellipse cx="2.18348" cy="2.15205" rx="2.18348" ry="2.15205" transform="matrix(0.359124 -0.93329 0.911372 0.411583 103.574 172.545)" fill="white"/>
<ellipse cx="1.31037" cy="1.29171" rx="1.31037" ry="1.29171" transform="matrix(0.359124 -0.93329 0.911372 0.411583 170.988 125.493)" fill="white"/>
<ellipse cx="1.31037" cy="1.29171" rx="1.31037" ry="1.29171" transform="matrix(0.359124 -0.93329 0.911372 0.411583 124.383 86.2679)" fill="white"/>
<ellipse cx="1.31037" cy="1.29171" rx="1.31037" ry="1.29171" transform="matrix(0.359124 -0.93329 0.911372 0.411583 66.6899 84.1299)" fill="white"/>
<ellipse cx="0.873582" cy="0.861139" rx="0.873582" ry="0.861139" transform="matrix(0.994426 0.105434 -0.161777 0.986827 333.216 147.339)" fill="#D9D9D9"/>
<ellipse cx="0.873582" cy="0.861139" rx="0.873582" ry="0.861139" transform="matrix(0.359124 -0.93329 0.911372 0.411583 187.625 163.623)" fill="#D9D9D9"/>
<ellipse cx="0.873582" cy="0.861139" rx="0.873582" ry="0.861139" transform="matrix(0.359124 -0.93329 0.911372 0.411583 61.2062 129.492)" fill="white"/>
<ellipse cx="3.05687" cy="3.01286" rx="3.05687" ry="3.01286" transform="matrix(0.359124 -0.93329 0.911372 0.411583 103.042 65.1488)" fill="white"/>
<ellipse cx="3.05687" cy="3.01286" rx="3.05687" ry="3.01286" transform="matrix(0.359124 -0.93329 0.911372 0.411583 190 67.7059)" fill="#D9D9D9"/>
<ellipse cx="2.18348" cy="2.15205" rx="2.18348" ry="2.15205" transform="matrix(0.359124 -0.93329 0.911372 0.411583 101.366 101.704)" fill="white"/>
<ellipse cx="2.18348" cy="2.15205" rx="2.18348" ry="2.15205" transform="matrix(0.359124 -0.93329 0.911372 0.411583 155.921 97.6401)" fill="white"/>
<ellipse cx="2.18348" cy="2.15205" rx="2.18348" ry="2.15205" transform="matrix(0.359124 -0.93329 0.911372 0.411583 103.574 172.545)" fill="white"/>
<ellipse cx="44.5768" cy="99.0393" rx="0.446096" ry="0.420922" transform="rotate(74.8203 44.5768 99.0393)" fill="white"/>
<ellipse cx="63.5231" cy="232.998" rx="0.446096" ry="0.420922" transform="rotate(74.8203 63.5231 232.998)" fill="white"/>
<ellipse cx="212.623" cy="106.364" rx="0.446096" ry="0.420922" transform="rotate(74.8203 212.623 106.364)" fill="#D9D9D9"/>
<ellipse cx="298.873" cy="186.501" rx="0.446096" ry="0.420922" transform="rotate(74.8203 298.873 186.501)" fill="#D9D9D9"/>
<g filter="url(#filter0_f_187_66)">
<ellipse cx="267.331" cy="154.951" rx="90.9384" ry="90.9592" fill="#D4E3F5" fill-opacity="0.12"/>
</g>
<g filter="url(#filter1_f_187_66)">
<ellipse cx="267.331" cy="154.951" rx="105.562" ry="105.586" fill="#75A9E8" fill-opacity="0.19"/>
</g>
<ellipse cx="267.788" cy="155.408" rx="77.686" ry="77.7039" fill="#D4E3F5"/>
<g filter="url(#filter2_i_187_66)">
<ellipse cx="238.542" cy="118.841" rx="7.31163" ry="7.3133" fill="#B8CAE0"/>
</g>
<g filter="url(#filter3_i_187_66)">
<ellipse cx="211.123" cy="141.695" rx="4.56977" ry="4.57082" fill="#B8CAE0"/>
</g>
<g filter="url(#filter4_i_187_66)">
<ellipse cx="250.88" cy="122.041" rx="1.37093" ry="1.37124" fill="#B8CAE0"/>
</g>
<g filter="url(#filter5_i_187_66)">
<ellipse cx="291.094" cy="209.8" rx="1.37093" ry="1.37124" fill="#B8CAE0"/>
</g>
<g filter="url(#filter6_i_187_66)">
<ellipse cx="335.878" cy="154.951" rx="2.28488" ry="2.28541" fill="#B8CAE0"/>
</g>
<g filter="url(#filter7_i_187_66)">
<ellipse cx="271.901" cy="195.174" rx="13.2523" ry="13.2554" fill="#B8CAE0"/>
</g>
<g filter="url(#filter8_i_187_66)">
<ellipse cx="327.652" cy="164.092" rx="5.9407" ry="5.94206" fill="#B8CAE0"/>
</g>
<g filter="url(#filter9_i_187_66)">
<ellipse cx="316.228" cy="126.155" rx="3.65581" ry="3.65665" fill="#B8CAE0"/>
</g>
<path d="M258.766 285.051C258.781 285.049 258.796 285.031 258.811 285.026C258.821 285.022 258.83 285.017 258.84 285.013C258.854 285.006 258.866 285 258.883 285" stroke="#FFC212" stroke-width="0.05"/>
<path d="M330.766 456.555C330.781 456.553 330.796 456.535 330.811 456.53C330.821 456.526 330.83 456.521 330.84 456.516C330.854 456.51 330.866 456.504 330.883 456.504" stroke="#FFC212" stroke-width="0.05"/>
</g>
</g>
<defs>
<filter id="filter0_f_187_66" x="174.393" y="61.9914" width="185.877" height="185.918" filterUnits="userSpaceOnUse" color-interpolation-filters="sRGB">
<feFlood flood-opacity="0" result="BackgroundImageFix"/>
<feBlend mode="normal" in="SourceGraphic" in2="BackgroundImageFix" result="shape"/>
<feGaussianBlur stdDeviation="1" result="effect1_foregroundBlur_187_66"/>
</filter>
<filter id="filter1_f_187_66" x="159.77" y="47.3648" width="215.123" height="215.172" filterUnits="userSpaceOnUse" color-interpolation-filters="sRGB">
<feFlood flood-opacity="0" result="BackgroundImageFix"/>
<feBlend mode="normal" in="SourceGraphic" in2="BackgroundImageFix" result="shape"/>
<feGaussianBlur stdDeviation="1" result="effect1_foregroundBlur_187_66"/>
</filter>
<filter id="filter2_i_187_66" x="231.23" y="111.528" width="15.6233" height="14.6266" filterUnits="userSpaceOnUse" color-interpolation-filters="sRGB">
<feFlood flood-opacity="0" result="BackgroundImageFix"/>
<feBlend mode="normal" in="SourceGraphic" in2="BackgroundImageFix" result="shape"/>
<feColorMatrix in="SourceAlpha" type="matrix" values="0 0 0 0 0 0 0 0 0 0 0 0 0 0 0 0 0 0 127 0" result="hardAlpha"/>
<feMorphology radius="1" operator="erode" in="SourceAlpha" result="effect1_innerShadow_187_66"/>
<feOffset dx="1"/>
<feGaussianBlur stdDeviation="0.5"/>
<feComposite in2="hardAlpha" operator="arithmetic" k2="-1" k3="1"/>
<feColorMatrix type="matrix" values="0 0 0 0 0.219608 0 0 0 0 0.243137 0 0 0 0 0.27451 0 0 0 0.25 0"/>
<feBlend mode="normal" in2="shape" result="effect1_innerShadow_187_66"/>
</filter>
<filter id="filter3_i_187_66" x="206.553" y="137.124" width="10.1396" height="9.14163" filterUnits="userSpaceOnUse" color-interpolation-filters="sRGB">
<feFlood flood-opacity="0" result="BackgroundImageFix"/>
<feBlend mode="normal" in="SourceGraphic" in2="BackgroundImageFix" result="shape"/>
<feColorMatrix in="SourceAlpha" type="matrix" values="0 0 0 0 0 0 0 0 0 0 0 0 0 0 0 0 0 0 127 0" result="hardAlpha"/>
<feMorphology radius="1" operator="erode" in="SourceAlpha" result="effect1_innerShadow_187_66"/>
<feOffset dx="1"/>
<feGaussianBlur stdDeviation="0.5"/>
<feComposite in2="hardAlpha" operator="arithmetic" k2="-1" k3="1"/>
<feColorMatrix type="matrix" values="0 0 0 0 0.219608 0 0 0 0 0.243137 0 0 0 0 0.27451 0 0 0 0.25 0"/>
<feBlend mode="normal" in2="shape" result="effect1_innerShadow_187_66"/>
</filter>
<filter id="filter4_i_187_66" x="249.509" y="120.67" width="3.74194" height="2.74249" filterUnits="userSpaceOnUse" color-interpolation-filters="sRGB">
<feFlood flood-opacity="0" result="BackgroundImageFix"/>
<feBlend mode="normal" in="SourceGraphic" in2="BackgroundImageFix" result="shape"/>
<feColorMatrix in="SourceAlpha" type="matrix" values="0 0 0 0 0 0 0 0 0 0 0 0 0 0 0 0 0 0 127 0" result="hardAlpha"/>
<feMorphology radius="1" operator="erode" in="SourceAlpha" result="effect1_innerShadow_187_66"/>
<feOffset dx="1"/>
<feGaussianBlur stdDeviation="0.5"/>
<feComposite in2="hardAlpha" operator="arithmetic" k2="-1" k3="1"/>
<feColorMatrix type="matrix" values="0 0 0 0 0.219608 0 0 0 0 0.243137 0 0 0 0 0.27451 0 0 0 0.25 0"/>
<feBlend mode="normal" in2="shape" result="effect1_innerShadow_187_66"/>
</filter>
<filter id="filter5_i_187_66" x="289.723" y="208.429" width="3.74194" height="2.74249" filterUnits="userSpaceOnUse" color-interpolation-filters="sRGB">
<feFlood flood-opacity="0" result="BackgroundImageFix"/>
<feBlend mode="normal" in="SourceGraphic" in2="BackgroundImageFix" result="shape"/>
<feColorMatrix in="SourceAlpha" type="matrix" values="0 0 0 0 0 0 0 0 0 0 0 0 0 0 0 0 0 0 127 0" result="hardAlpha"/>
<feMorphology radius="1" operator="erode" in="SourceAlpha" result="effect1_innerShadow_187_66"/>
<feOffset dx="1"/>
<feGaussianBlur stdDeviation="0.5"/>
<feComposite in2="hardAlpha" operator="arithmetic" k2="-1" k3="1"/>
<feColorMatrix type="matrix" values="0 0 0 0 0.219608 0 0 0 0 0.243137 0 0 0 0 0.27451 0 0 0 0.25 0"/>
<feBlend mode="normal" in2="shape" result="effect1_innerShadow_187_66"/>
</filter>
<filter id="filter6_i_187_66" x="333.593" y="152.665" width="5.56982" height="4.5708" filterUnits="userSpaceOnUse" color-interpolation-filters="sRGB">
<feFlood flood-opacity="0" result="BackgroundImageFix"/>
<feBlend mode="normal" in="SourceGraphic" in2="BackgroundImageFix" result="shape"/>
<feColorMatrix in="SourceAlpha" type="matrix" values="0 0 0 0 0 0 0 0 0 0 0 0 0 0 0 0 0 0 127 0" result="hardAlpha"/>
<feMorphology radius="1" operator="erode" in="SourceAlpha" result="effect1_innerShadow_187_66"/>
<feOffset dx="1"/>
<feGaussianBlur stdDeviation="0.5"/>
<feComposite in2="hardAlpha" operator="arithmetic" k2="-1" k3="1"/>
<feColorMatrix type="matrix" values="0 0 0 0 0.219608 0 0 0 0 0.243137 0 0 0 0 0.27451 0 0 0 0.25 0"/>
<feBlend mode="normal" in2="shape" result="effect1_innerShadow_187_66"/>
</filter>
<filter id="filter7_i_187_66" x="258.649" y="181.918" width="27.5046" height="26.5107" filterUnits="userSpaceOnUse" color-interpolation-filters="sRGB">
<feFlood flood-opacity="0" result="BackgroundImageFix"/>
<feBlend mode="normal" in="SourceGraphic" in2="BackgroundImageFix" result="shape"/>
<feColorMatrix in="SourceAlpha" type="matrix" values="0 0 0 0 0 0 0 0 0 0 0 0 0 0 0 0 0 0 127 0" result="hardAlpha"/>
<feMorphology radius="1" operator="erode" in="SourceAlpha" result="effect1_innerShadow_187_66"/>
<feOffset dx="1"/>
<feGaussianBlur stdDeviation="0.5"/>
<feComposite in2="hardAlpha" operator="arithmetic" k2="-1" k3="1"/>
<feColorMatrix type="matrix" values="0 0 0 0 0.219608 0 0 0 0 0.243137 0 0 0 0 0.27451 0 0 0 0.25 0"/>
<feBlend mode="normal" in2="shape" result="effect1_innerShadow_187_66"/>
</filter>
<filter id="filter8_i_187_66" x="321.712" y="158.15" width="12.8813" height="11.8841" filterUnits="userSpaceOnUse" color-interpolation-filters="sRGB">
<feFlood flood-opacity="0" result="BackgroundImageFix"/>
<feBlend mode="normal" in="SourceGraphic" in2="BackgroundImageFix" result="shape"/>
<feColorMatrix in="SourceAlpha" type="matrix" values="0 0 0 0 0 0 0 0 0 0 0 0 0 0 0 0 0 0 127 0" result="hardAlpha"/>
<feMorphology radius="1" operator="erode" in="SourceAlpha" result="effect1_innerShadow_187_66"/>
<feOffset dx="1"/>
<feGaussianBlur stdDeviation="0.5"/>
<feComposite in2="hardAlpha" operator="arithmetic" k2="-1" k3="1"/>
<feColorMatrix type="matrix" values="0 0 0 0 0.219608 0 0 0 0 0.243137 0 0 0 0 0.27451 0 0 0 0.25 0"/>
<feBlend mode="normal" in2="shape" result="effect1_innerShadow_187_66"/>
</filter>
<filter id="filter9_i_187_66" x="312.572" y="122.498" width="8.31152" height="7.31329" filterUnits="userSpaceOnUse" color-interpolation-filters="sRGB">
<feFlood flood-opacity="0" result="BackgroundImageFix"/>
<feBlend mode="normal" in="SourceGraphic" in2="BackgroundImageFix" result="shape"/>
<feColorMatrix in="SourceAlpha" type="matrix" values="0 0 0 0 0 0 0 0 0 0 0 0 0 0 0 0 0 0 127 0" result="hardAlpha"/>
<feMorphology radius="1" operator="erode" in="SourceAlpha" result="effect1_innerShadow_187_66"/>
<feOffset dx="1"/>
<feGaussianBlur stdDeviation="0.5"/>
<feComposite in2="hardAlpha" operator="arithmetic" k2="-1" k3="1"/>
<feColorMatrix type="matrix" values="0 0 0 0 0.219608 0 0 0 0 0.243137 0 0 0 0 0.27451 0 0 0 0.25 0"/>
<feBlend mode="normal" in2="shape" result="effect1_innerShadow_187_66"/>
</filter>
<radialGradient id="paint0_radial_187_66" cx="0" cy="0" r="1" gradientUnits="userSpaceOnUse" gradientTransform="translate(113.481 223.359) rotate(90) scale(223.359 113.481)">
<stop offset="0.00904254" stop-color="#0368FF" stop-opacity="0.74"/>
<stop offset="1" stop-color="#CADFFF" stop-opacity="0"/>
</radialGradient>
<clipPath id="clip0_187_66">
<rect width="393" height="852" fill="white"/>
</clipPath>
<clipPath id="clip1_187_66">
<rect width="393" height="852" fill="white"/>
</clipPath>
</defs>
</svg>
