<svg width="279" height="115" viewBox="0 0 279 115" fill="none" xmlns="http://www.w3.org/2000/svg">
<path d="M4.41375 90V84.912L13.4378 82.8L12.2858 84.432V28.272L13.8218 30.288L4.41375 28.368V23.28L21.8858 22.8H50.4938V40.176H44.6378L42.9098 28.848L44.7338 30H20.4458L22.0778 28.368V52.08L20.2538 50.256H33.2138C40.7658 50.256 46.3658 51.888 50.0138 55.152C53.7258 58.416 55.5818 63.024 55.5818 68.976C55.5818 73.2 54.6218 76.912 52.7018 80.112C50.7818 83.248 47.8698 85.68 43.9658 87.408C40.1258 89.136 35.2618 90 29.3738 90H4.41375ZM22.0778 84.432L19.9658 82.8H29.2778C34.4618 82.8 38.4298 81.68 41.1818 79.44C43.9978 77.136 45.4058 73.776 45.4058 69.36C45.4058 65.264 44.2538 62.192 41.9498 60.144C39.6458 58.032 36.2218 56.976 31.6778 56.976H20.4458L22.0778 55.344V84.432ZM87.7575 38.16C94.9255 38.16 100.558 40.4 104.654 44.88C108.75 49.296 110.798 55.568 110.798 63.696C110.798 69.2 109.806 74 107.822 78.096C105.838 82.192 102.99 85.36 99.2775 87.6C95.6295 89.84 91.2135 90.96 86.0295 90.96C78.9255 90.96 73.3895 88.784 69.4215 84.432C65.4535 80.016 63.4695 73.744 63.4695 65.616C63.4695 59.92 64.4295 55.024 66.3495 50.928C68.2695 46.832 71.0215 43.696 74.6055 41.52C78.2535 39.28 82.6375 38.16 87.7575 38.16ZM87.2775 45.168C82.7335 45.168 79.2775 46.896 76.9095 50.352C74.6055 53.744 73.4535 58.672 73.4535 65.136C73.4535 71.472 74.5735 76.208 76.8135 79.344C79.0535 82.416 82.3175 83.952 86.6055 83.952C89.7415 83.952 92.3335 83.184 94.3815 81.648C96.4935 80.112 98.0615 77.872 99.0855 74.928C100.174 71.92 100.718 68.336 100.718 64.176C100.718 57.84 99.5655 53.104 97.2615 49.968C94.9575 46.768 91.6295 45.168 87.2775 45.168ZM118.014 90V84.912L126.462 82.896L125.214 84.816V44.304L126.654 46.32L118.014 44.4V39.408L141.342 38.832V43.824L133.662 45.936L134.814 44.304V62.064L133.086 59.952H146.43L143.358 61.68L153.822 44.496L154.59 45.648L147.006 44.496V39.408L168.894 38.736V43.728L160.542 45.552L163.23 43.92L150.654 64.176L151.326 61.488L164.958 84.528L163.518 83.28L171.294 85.008V90H157.854L144.318 66.096L145.95 66.48H133.086L134.814 66V84.816L133.662 82.896L142.494 84.912V90H118.014ZM195.152 90.96C190.736 90.96 186.832 90 183.44 88.08C180.112 86.096 177.488 83.216 175.568 79.44C173.712 75.6 172.784 70.928 172.784 65.424C172.784 59.792 173.744 54.96 175.664 50.928C177.648 46.832 180.432 43.696 184.016 41.52C187.664 39.28 191.92 38.16 196.784 38.16C201.456 38.16 205.264 39.12 208.208 41.04C211.216 42.96 213.424 45.616 214.832 49.008C216.304 52.336 217.04 56.144 217.04 60.432C217.04 61.264 217.008 62.096 216.944 62.928C216.88 63.76 216.784 64.72 216.656 65.808H180.272V59.184H208.016L207.152 59.76C207.216 57.136 206.896 54.736 206.192 52.56C205.488 50.384 204.304 48.656 202.64 47.376C200.976 46.032 198.768 45.36 196.016 45.36C193.008 45.36 190.512 46.192 188.528 47.856C186.544 49.456 185.072 51.664 184.112 54.48C183.152 57.296 182.672 60.528 182.672 64.176C182.672 68.08 183.216 71.504 184.304 74.448C185.392 77.328 187.024 79.6 189.2 81.264C191.44 82.864 194.192 83.664 197.456 83.664C199.76 83.664 202.256 83.216 204.944 82.32C207.696 81.424 210.512 80.08 213.392 78.288L216.752 83.568C213.168 86.064 209.52 87.92 205.808 89.136C202.16 90.352 198.608 90.96 195.152 90.96ZM223.744 112.08V106.992L232.288 104.784L230.848 106.512V45.072L232.096 46.512L223.744 44.496V39.408L238.336 38.736L239.488 47.088L238.336 46.416C241.344 43.664 244.288 41.616 247.168 40.272C250.112 38.864 253.056 38.16 256 38.16C259.584 38.16 262.784 39.152 265.6 41.136C268.48 43.12 270.752 46 272.416 49.776C274.08 53.488 274.912 58.096 274.912 63.6C274.912 69.552 273.888 74.576 271.84 78.672C269.792 82.768 266.912 85.872 263.2 87.984C259.488 90.032 255.136 91.056 250.144 91.056C248.48 91.056 246.72 90.896 244.864 90.576C243.008 90.32 241.088 89.936 239.104 89.424L240.448 88.272V106.512L239.296 104.976L248.8 106.992V112.08H223.744ZM248.992 84.048C254.304 84.048 258.272 82.32 260.896 78.864C263.584 75.408 264.928 70.64 264.928 64.56C264.928 60.528 264.384 57.104 263.296 54.288C262.208 51.408 260.736 49.2 258.88 47.664C257.024 46.128 254.88 45.36 252.448 45.36C250.4 45.36 248.256 45.904 246.016 46.992C243.776 48.08 241.536 49.744 239.296 51.984L240.448 49.2V84.336L239.2 82.32C242.784 83.472 246.048 84.048 248.992 84.048Z" fill="#FFC212"/>
<path d="M67 43.5L69 47.5L77 42.5L80 40L79 39L77 35.5L75.5 33.5L74 31.5L73 30.5L71.5 29H70L67.5 30L66 31.5L64.5 33.5L64 35.5V37.5L65 40L67 43.5Z" fill="#FFC212" stroke="#FFC212"/>
<path d="M61.8075 58.1605L65.3586 60.8789L70.3571 52.878L71.9575 49.3159L70.6204 48.8555L67.2885 46.5865L65.0636 45.4464L62.8386 44.3064L61.5015 43.846L59.4957 43.1553L58.1475 43.8129L56.3389 45.8076L55.6483 47.8134L55.1768 50.2685L55.6042 52.2853L56.4809 54.0829L58.4756 55.8915L61.8075 58.1605Z" fill="#FFC212" stroke="#FFC212"/>
<path d="M80.8471 35.4338L80.0371 39.8319L89.4352 40.6533L93.3357 40.4621L93.1389 39.0617L93.648 35.0628L93.6536 32.5628L93.6593 30.0628L93.4625 28.6624L93.1673 26.5617L91.9693 25.659L89.3709 24.9531L87.2702 25.2483L84.8686 25.9429L83.2657 27.2392L82.0621 28.8365L81.3562 31.4349L80.8471 35.4338Z" fill="#FFC212" stroke="#FFC212"/>
<path d="M95.8744 34.6383L93.0337 38.0924L100.855 43.367L104.359 45.0908L104.866 43.7705L107.25 40.5199L108.467 38.3361L109.684 36.1523L110.191 34.832L110.951 32.8516L110.341 31.4813L108.411 29.6041L106.43 28.8439L103.993 28.2871L101.963 28.6438L100.135 29.4573L98.2584 31.3876L95.8744 34.6383Z" fill="#FFC212" stroke="#FFC212"/>
<path d="M105.451 44.1378L101.384 45.9969L106.102 54.1666L108.495 57.252L109.53 56.2875L113.097 54.4109L115.148 52.9816L117.2 51.5523L118.751 50.1056L118.803 48.6065L117.891 46.0731L116.445 44.5217L114.498 42.9528L112.517 42.3833L110.518 42.3135L109.019 42.2611L105.451 44.1378Z" fill="#FFC212" stroke="#FFC212"/>
</svg>
