<svg width="158" height="138" viewBox="0 0 158 138" fill="none" xmlns="http://www.w3.org/2000/svg">
<path fill-rule="evenodd" clip-rule="evenodd" d="M59 0.216581C54.772 0.988581 53.893 2.39658 54.208 7.88858C54.596 14.6546 53 15.1596 50.711 8.99458C48.516 3.08358 49.096 3.79458 45.798 2.96758C43.684 2.43658 42.542 2.84858 40.515 4.87658C38.185 7.20558 37.994 7.95858 38.593 12.4716C39.375 18.3646 37.862 19.2176 35.203 14.3836C30.624 6.05458 27.231 4.47758 23.174 8.79558C20.245 11.9136 20.436 14.5216 24.002 20.1456C27.566 25.7656 26.783 27.6486 21.736 25.5896C12.408 21.7836 10.584 21.3496 8.293 22.3936C4.54 24.1036 5.521 27.1226 11.698 32.8726L17.396 38.1756L14.89 39.8186C13.511 40.7216 10.012 41.9106 7.114 42.4596C0.546 43.7056 0 44.0486 0 46.9296C0 51.1556 3.073 53.5946 9.96 54.8336C13.467 55.4656 16.497 56.4676 16.694 57.0606C16.892 57.6546 15.691 59.8536 14.026 61.9486C9.365 67.8146 9.863 70.7596 16.938 79.1646C24.681 88.3636 33.146 94.6766 45.611 100.549C58.741 106.736 59.593 108.948 53.503 121.039C48.106 131.754 48.399 132.248 60.71 133.205C66.523 133.656 68.43 133.43 70.556 132.037C73.151 130.337 73.182 130.182 72.491 122.381C71.917 115.9 72.086 113.999 73.418 111.967C75.164 109.303 78.789 108.671 80.8 110.682C82.939 112.821 82.289 124.084 79.773 128.455C77.591 132.247 77.584 132.365 79.423 134.397C82.191 137.456 87.425 138.621 91.841 137.162L95.5 135.952L95.137 125.33C94.804 115.586 94.949 114.533 96.887 112.595C99.21 110.272 101.163 109.964 103.986 111.474C106.975 113.074 108.247 118.663 107.482 126.828C106.91 132.94 107.071 134.41 108.47 135.809C110.601 137.94 117.787 138.02 120.749 135.946L122.942 134.409L120.893 129.21C118.144 122.236 117.911 111.752 120.463 109.886C124.643 106.829 128.235 112.258 129.45 123.472C129.837 127.042 130.624 130.529 131.199 131.222C132.624 132.938 137.469 132.808 141.05 130.956C144.959 128.935 144.858 126.436 140.5 117.342C135.177 106.234 136.018 101.77 144.734 94.8666C157.319 84.9006 159.776 80.5396 154.777 77.0386C151.513 74.7516 148.145 75.1296 144.129 78.2316C128.122 90.5966 108 96.7386 108 89.2586C108 88.1536 109.626 85.0346 111.613 82.3276C115.804 76.6186 120.624 65.6886 121.576 59.7336C122.319 55.0826 119.271 47.2926 115.878 45.1736C113.237 43.5246 113.534 42.1886 116.994 40.1436C120.452 38.1016 121.731 34.3816 120.161 30.9356C118.596 27.5006 115.25 27.0406 109.698 29.4976C104.811 31.6586 100.934 31.8266 100.302 29.9026C100.107 29.3086 101.319 27.0966 102.996 24.9866C107.287 19.5876 107.758 16.9176 104.948 13.9266C101.54 10.2986 98.105 10.7656 93.5 15.4816C91.352 17.6816 89.01 19.4816 88.297 19.4816C86.748 19.4816 86.772 19.7616 87.964 15.6066C90.2 7.80958 83.02 1.10958 78.57 6.84158C77.432 8.30858 75.502 10.7396 74.282 12.2456L72.063 14.9816L72.032 9.38658C72.009 5.33558 71.517 3.36958 70.25 2.26358C68.275 0.537581 62.747 -0.467419 59 0.216581ZM84.093 39.0296C85.739 39.8806 87.522 41.7236 88.055 43.1256C89.406 46.6796 86.688 63.0836 84.195 66.4226C81.505 70.0246 76.765 71.2126 73.531 69.0946C70.627 67.1916 70.42 65.8276 72.443 61.9286C73.693 59.5206 73.696 58.6906 72.47 55.7556C70.655 51.4116 67.15 46.4816 65.876 46.4816C65.332 46.4816 64.01 48.4666 62.937 50.8916C58.791 60.2636 59.164 65.9456 64.035 67.6436C67.678 68.9136 67.814 70.2216 64.435 71.5066C56.405 74.5596 49.903 71.0926 45.007 61.1486C40.198 51.3796 40.549 41.6716 45.783 39.6456C50.347 37.8786 52.002 37.7176 66.8 37.5976C77.926 37.5076 81.764 37.8256 84.093 39.0296ZM75.141 42.8116C72.604 45.8676 76.413 49.3786 79.653 46.9716C81.122 45.8796 81.274 45.2286 80.393 43.7906C78.962 41.4526 76.629 41.0186 75.141 42.8116ZM52.571 44.0526C50.675 45.9496 50.888 47.3776 53.291 48.8936C55.686 50.4036 58.922 47.1676 57.412 44.7726C55.896 42.3696 54.468 42.1566 52.571 44.0526Z" fill="#FFC212"/>
</svg>
